<?xml version="1.0" encoding="utf-8"?>
<!-- Generator: Adobe Illustrator 27.9.0, SVG Export Plug-In . SVG Version: 6.00 Build 0)  -->
<svg version="1.1" id="Layer_1" xmlns="http://www.w3.org/2000/svg" xmlns:xlink="http://www.w3.org/1999/xlink" x="0px" y="0px"
	 viewBox="0 0 88.8 65.5" enable-background="new 0 0 88.8 65.5" xml:space="preserve">
<g>
	<path fill="#FFFFFF" d="M10.8,15.4h22.7c0.6,0,1.2,0,1.7,0c-0.8,1.9-1.4,3.9-1.6,6H16.8C13.5,21.4,10.8,18.7,10.8,15.4L10.8,15.4
		L10.8,15.4z"/>
	<path fill="#FFFFFF" d="M17.9,25.5h9.6h6h0.1c0.2,2.1,0.8,4.1,1.6,6c-0.5,0-1.1,0-1.7,0h-6h-3.6C20.6,31.5,17.9,28.8,17.9,25.5
		L17.9,25.5L17.9,25.5z"/>
	<path fill="#FFFFFF" d="M35.2,35.9C41.7,35.5,47,30,47,23.4c0-2.6-0.8-4.9-2.1-6.9c1.3-1.6,2.9-2.8,4.9-3.5c2,3,3.2,6.6,3.2,10.4
		l0,0c0,10.2-8.3,18.5-18.5,18.5h-0.2v0h-2.4c-3.3,0-6-2.7-6-6v0H35.2L35.2,35.9z M37.7,11.3c-1-0.3-2.1-0.4-3.2-0.4
		c-11.8,0-13.2,0-25,0c-3.2,0-5.8-2.5-6-5.7l0,0V4.9v0c12.4,0,14.3,0,26.6,0h1.6h1.4h0.4h1c2.9,0,5.6,0.7,8.1,1.9
		C40.7,8,39,9.5,37.7,11.3L37.7,11.3z"/>
	<path fill="#FFFFFF" d="M77.2,15.4H55.5c-1.1,0-2-0.1-2.8,0c0.8,1.9,1.4,3.9,1.6,6h16.9C74.5,21.4,77.2,18.7,77.2,15.4L77.2,15.4z"
		/>
	<path fill="#FFFFFF" d="M70.1,25.5h-9.6h-6h-0.1c-0.2,2.1-0.8,4.1-1.6,6c0.5,0,1.1,0,1.7,0h6h3.6C67.4,31.5,70.1,28.8,70.1,25.5
		L70.1,25.5L70.1,25.5z"/>
	<path fill="#FFFFFF" d="M52.8,35.9c-0.9,0-1.7-0.2-2.5-0.4c-1.4,1.8-3,3.3-4.9,4.5c2.4,1.2,5.2,1.9,8.1,1.9h0.2v0h2.4
		c3.3,0,6-2.7,6-6v0H52.8L52.8,35.9z M43.1,30.3c-1.3-2-2.1-4.4-2.1-6.9c0-6.9,5.7-12.6,12.5-12.6c11.8,0,13.2,0,25,0
		c3.2,0,5.8-2.5,6-5.7l0,0V4.9v0c-12.4,0-14.3,0-26.6,0h-1.6h-1.4h-0.4h-1C43.3,4.9,35,13.2,35,23.4l0,0c0,3.9,1.2,7.5,3.2,10.4
		C40.2,33.1,41.8,31.9,43.1,30.3L43.1,30.3z"/>
</g>
<g>
	<path fill="#FFFFFF" d="M6,60.6V46.4h2.2v14.2H6z"/>
	<path fill="#FFFFFF" d="M16.9,49.6v1.3L14.8,51v-1.2c0-1.1-0.4-1.6-1.2-1.6s-1.2,0.5-1.2,1.4v7.8c0,0.9,0.4,1.4,1.2,1.4
		s1.2-0.5,1.2-1.6v-1.6l2.1,0.1v1.7c0,2.2-1.2,3.4-3.4,3.4c-2.1,0-3.3-1.3-3.3-3.4v-7.8c0-2.2,1.2-3.4,3.3-3.4
		C15.6,46.2,16.9,47.5,16.9,49.6z"/>
	<path fill="#FFFFFF" d="M22.2,48.4v12.2H20V48.4h-2.3v-2h6.7v2H22.2z"/>
	<path fill="#FFFFFF" d="M33.9,60.6l-0.5-3.2H31l-0.5,3.2h-2.2l2.5-14.2h2.7l2.5,14.2H33.9z M31.3,55.5h1.8l-0.9-6h-0.1L31.3,55.5z"
		/>
	<path fill="#FFFFFF" d="M37.6,60.6V46.4h2.2v14.2H37.6z"/>
	<path fill="#FFFFFF" d="M45,54.6h-1v6h-2.2V46.4H45c2.3,0,3.6,1.3,3.6,3.6v1c0,1.5-0.5,2.6-1.5,3.1l2,6.5h-2.3L45,54.6z M44,52.6
		h0.9c1,0,1.5-0.5,1.5-1.7v-0.7c0-1.2-0.5-1.7-1.5-1.7H44V52.6z"/>
	<path fill="#FFFFFF" d="M56.5,60.6l-1.2-8.5h0L54,60.6h-2.2l-2.2-14.2h2.2l1.2,9.4h0l1.2-9.4h1.9l1.2,9.4h0l1.2-9.4h2.2l-2.2,14.2
		H56.5z"/>
	<path fill="#FFFFFF" d="M66.6,60.6l-0.5-3.2h-2.4l-0.5,3.2h-2.2l2.5-14.2h2.7l2.5,14.2H66.6z M64.1,55.5h1.8l-0.9-6h-0.1L64.1,55.5
		z"/>
	<path fill="#FFFFFF" d="M73.4,60.6h-2.2v-6.4l-3-7.8h2.3l1.8,5h0l1.7-5h2.2l-2.9,7.8V60.6z"/>
	<path fill="#FFFFFF" d="M83.1,49.5v0.4L81,50.1v-0.4c0-1-0.4-1.4-1.1-1.4c-0.6,0-1.1,0.3-1.1,1.2v0.3c0,0.8,0.4,1.4,1.8,2.7
		c1.9,1.8,2.6,2.9,2.6,4.6v0.7c0,2.1-1.3,3.2-3.3,3.2c-2,0-3.3-1.2-3.3-3.2v-0.9l2.1-0.2v1c0,1,0.4,1.4,1.2,1.4
		c0.7,0,1.2-0.3,1.2-1.4V57c0-0.9-0.4-1.5-1.8-2.8c-1.9-1.8-2.6-2.9-2.6-4.5v-0.3c0-2.1,1.2-3.2,3.2-3.2S83.1,47.4,83.1,49.5z"/>
</g>
</svg>
