<?xml version="1.0" encoding="utf-8"?>
<!-- Generator: Adobe Illustrator 27.8.1, SVG Export Plug-In . SVG Version: 6.00 Build 0)  -->
<svg version="1.1" id="Layer_1" xmlns="http://www.w3.org/2000/svg" xmlns:xlink="http://www.w3.org/1999/xlink" x="0px" y="0px"
	 viewBox="0 0 1119 1110" enable-background="new 0 0 1119 1110" xml:space="preserve">
<g display="none">
	<g display="inline">
		<g>
			<g>
				<path fill="#FFFFFF" d="M206.8,665.6c-1.6,0-2.6,0.9-2.6,3.1v3.4h-4.7v-3c0-5,2.5-7.9,7.3-7.9c4.8,0,7.3,2.9,7.3,7.9
					c0,9.9-9.8,13.5-9.8,18.7c0,0.2,0,0.4,0,0.7h9.3v4.5h-14.2V689c0-9.2,9.8-10.8,9.8-19.8C209.4,666.4,208.4,665.6,206.8,665.6z"
					/>
				<path fill="#FFFFFF" d="M216.9,669c0-5,2.6-7.9,7.5-7.9c4.8,0,7.5,2.9,7.5,7.9v16.3c0,5-2.6,7.9-7.5,7.9c-4.8,0-7.5-2.9-7.5-7.9
					V669z M221.9,685.7c0,2.2,1,3.1,2.6,3.1c1.6,0,2.6-0.9,2.6-3.1v-16.9c0-2.2-1-3.1-2.6-3.1c-1.6,0-2.6,0.9-2.6,3.1V685.7z"/>
			</g>
		</g>
		<g>
			<g>
				<path fill="#FFFFFF" d="M174.9,559.5l9-21.2h5.4v21.2h2.3v4.5h-2.3v5.7h-4.8V564h-9.5V559.5z M184.4,559.5v-11.8l-5,11.8H184.4z
					"/>
				<path fill="#FFFFFF" d="M193.4,545.9c0-5,2.6-7.9,7.5-7.9c4.8,0,7.5,2.9,7.5,7.9v16.3c0,5-2.6,7.9-7.5,7.9
					c-4.8,0-7.5-2.9-7.5-7.9V545.9z M198.4,562.5c0,2.2,1,3.1,2.6,3.1c1.6,0,2.6-0.9,2.6-3.1v-16.9c0-2.2-1-3.1-2.6-3.1
					c-1.6,0-2.6,0.9-2.6,3.1V562.5z"/>
			</g>
		</g>
		<g>
			<g>
				<path fill="#FFFFFF" d="M198.2,425.2c0-5.3,2.4-8.2,7.5-8.2c4.8,0,7.3,2.9,7.3,7.9v0.8h-4.7v-1.1c0-2.2-1-3.1-2.6-3.1
					c-1.7,0-2.7,0.9-2.7,3.9v5.7c0.9-1.8,2.4-2.8,4.6-2.8c3.6,0,5.5,2.6,5.5,7.2v5.7c0,5-2.6,7.9-7.5,7.9c-4.8,0-7.5-2.9-7.5-7.9
					V425.2z M203.1,435.9v5.6c0,2.2,1,3,2.6,3c1.6,0,2.6-0.8,2.6-3v-5.6c0-2.2-1-3.1-2.6-3.1C204.1,432.8,203.1,433.7,203.1,435.9z"
					/>
				<path fill="#FFFFFF" d="M215.8,425c0-5,2.6-7.9,7.5-7.9c4.8,0,7.5,2.9,7.5,7.9v16.3c0,5-2.6,7.9-7.5,7.9c-4.8,0-7.5-2.9-7.5-7.9
					V425z M220.8,441.6c0,2.2,1,3.1,2.6,3.1c1.6,0,2.6-0.9,2.6-3.1v-16.9c0-2.2-1-3.1-2.6-3.1c-1.6,0-2.6,0.9-2.6,3.1V441.6z"/>
			</g>
		</g>
		<g>
			<radialGradient id="SVGID_1_" cx="561.0917" cy="556.6193" r="549.6083" gradientUnits="userSpaceOnUse">
				<stop  offset="0.3351" style="stop-color:#000000"/>
				<stop  offset="0.3908" style="stop-color:#000104"/>
				<stop  offset="0.4452" style="stop-color:#000310"/>
				<stop  offset="0.4992" style="stop-color:#000723"/>
				<stop  offset="0.553" style="stop-color:#000D3F"/>
				<stop  offset="0.6066" style="stop-color:#001463"/>
				<stop  offset="0.6601" style="stop-color:#001C8E"/>
				<stop  offset="0.7135" style="stop-color:#0027C2"/>
				<stop  offset="0.7656" style="stop-color:#0033FD"/>
				<stop  offset="0.7676" style="stop-color:#0033FF"/>
				<stop  offset="0.8432" style="stop-color:#0D0AFF"/>
				<stop  offset="1" style="stop-color:#000000"/>
			</radialGradient>
			<circle fill="url(#SVGID_1_)" cx="561.1" cy="556.6" r="549.6"/>
			<g>
				<path fill="#00DCFF" d="M561.1,1022.6c-257,0-466-209-466-466s209-466,466-466c257,0,466,209,466,466S818,1022.6,561.1,1022.6z
					 M561.1,99.9c-251.8,0-456.7,204.9-456.7,456.7c0,251.8,204.9,456.7,456.7,456.7s456.7-204.9,456.7-456.7
					C1017.8,304.8,812.9,99.9,561.1,99.9z"/>
			</g>
			<g>
				<path fill="#00DCFF" d="M561.1,1033.5c-262.9,0-476.9-213.9-476.9-476.9c0-262.9,213.9-476.9,476.9-476.9
					C824,79.8,1038,293.7,1038,556.6C1038,819.6,824,1033.5,561.1,1033.5z M561.1,84.3c-260.4,0-472.3,211.9-472.3,472.3
					c0,260.5,211.9,472.3,472.3,472.3c260.5,0,472.3-211.9,472.3-472.3C1033.4,296.2,821.5,84.3,561.1,84.3z"/>
			</g>
			<g>
				<path fill="#00DCFF" d="M561.1,1040.1c-266.6,0-483.4-216.9-483.4-483.4C77.6,290,294.5,73.2,561.1,73.2
					c266.6,0,483.4,216.9,483.4,483.4C1044.5,823.2,827.7,1040.1,561.1,1040.1z M561.1,75.5C295.8,75.5,80,291.3,80,556.6
					s215.8,481.1,481.1,481.1s481.1-215.8,481.1-481.1S826.4,75.5,561.1,75.5z"/>
			</g>
			<g>
				<defs>
					<path id="SVGID_00000083090803251372071830000017829362594936050579_" d="M561.1,554L202.3,870.6
						C125.2,783.2,82.6,670.5,82.6,554c0-262.5,216-478.5,478.5-478.5c262.5,0,478.5,216,478.5,478.5
						c0,116.4-42.5,228.9-119.4,316.3L561.1,554z"/>
				</defs>
				<clipPath id="SVGID_00000016039363844475667190000016390630961418021009_">
					<use xlink:href="#SVGID_00000083090803251372071830000017829362594936050579_"  overflow="visible"/>
				</clipPath>
				<g clip-path="url(#SVGID_00000016039363844475667190000016390630961418021009_)">
					<g>
						<defs>
							<path id="SVGID_00000042003588822507521460000010897147894351578549_" d="M561.1,92.8c-255.9,0-463.3,207.4-463.3,463.3
								s207.4,463.3,463.3,463.3c255.9,0,463.3-207.4,463.3-463.3S817,92.8,561.1,92.8z M561.1,976.6
								c-232.2,0-420.5-188.2-420.5-420.5c0-232.2,188.2-420.5,420.5-420.5c232.2,0,420.5,188.2,420.5,420.5
								C981.6,788.4,793.3,976.6,561.1,976.6z"/>
						</defs>
						<clipPath id="SVGID_00000041291581532197218550000015915202252646817158_">
							<use xlink:href="#SVGID_00000042003588822507521460000010897147894351578549_"  overflow="visible"/>
						</clipPath>
						<g clip-path="url(#SVGID_00000041291581532197218550000015915202252646817158_)">
							<g>
								
									<rect x="559.1" y="111.2" transform="matrix(0.9994 -3.490193e-02 3.490193e-02 0.9994 -19.0692 19.922)" fill="#24FFF8" width="3.9" height="890"/>
							</g>
							<g>
								
									<rect x="559.1" y="111.2" transform="matrix(0.9976 -6.975420e-02 6.975420e-02 0.9976 -37.4277 40.4932)" fill="#24FFF8" width="3.9" height="890"/>
							</g>
							<g>
								
									<rect x="559.1" y="111.2" transform="matrix(0.9945 -0.1045 0.1045 0.9945 -55.0593 61.6951)" fill="#24FFF8" width="3.9" height="890"/>
							</g>
							<g>
								
									<rect x="559.1" y="111.2" transform="matrix(0.9903 -0.1392 0.1392 0.9903 -71.9412 83.5004)" fill="#24FFF8" width="3.9" height="890"/>
							</g>
							<g>
								
									<rect x="559.1" y="111.2" transform="matrix(0.9781 -0.2079 0.2079 0.9781 -103.3707 128.8105)" fill="#24FFF8" width="3.9" height="890"/>
							</g>
							<g>
								
									<rect x="559.1" y="111.2" transform="matrix(0.9703 -0.2419 0.2419 0.9703 -117.8808 152.2621)" fill="#24FFF8" width="3.9" height="890"/>
							</g>
							<g>
								
									<rect x="559.1" y="111.2" transform="matrix(0.9613 -0.2756 0.2756 0.9613 -131.5623 176.2023)" fill="#24FFF8" width="3.9" height="890"/>
							</g>
							<g>
								
									<rect x="559.1" y="111.2" transform="matrix(0.9511 -0.309 0.309 0.9511 -144.4007 200.6071)" fill="#24FFF8" width="3.9" height="890"/>
							</g>
							<g>
								
									<rect x="559.1" y="111.2" transform="matrix(0.9272 -0.3746 0.3746 0.9272 -167.4844 250.6853)" fill="#24FFF8" width="3.9" height="890"/>
							</g>
							<g>
								
									<rect x="559.1" y="111.2" transform="matrix(0.9135 -0.4067 0.4067 0.9135 -177.701 276.2973)" fill="#24FFF8" width="3.9" height="890"/>
							</g>
							<g>
								
									<rect x="559.1" y="111.2" transform="matrix(0.8988 -0.4384 0.4384 0.8988 -187.0191 302.2557)" fill="#24FFF8" width="3.9" height="890"/>
							</g>
							<g>
								
									<rect x="559.1" y="111.2" transform="matrix(0.8829 -0.4695 0.4695 0.8829 -195.4244 328.5176)" fill="#24FFF8" width="3.9" height="890"/>
							</g>
							<g>
								
									<rect x="559.1" y="111.2" transform="matrix(0.848 -0.5299 0.5299 0.848 -209.4606 381.8436)" fill="#24FFF8" width="3.9" height="890"/>
							</g>
							<g>
								
									<rect x="559.1" y="111.2" transform="matrix(0.829 -0.5592 0.5592 0.829 -215.0742 408.842)" fill="#24FFF8" width="3.9" height="890"/>
							</g>
							<g>
								
									<rect x="559.1" y="111.2" transform="matrix(0.809 -0.5878 0.5878 0.809 -219.7441 436.0182)" fill="#24FFF8" width="3.9" height="890"/>
							</g>
							<g>
								
									<rect x="559.1" y="111.2" transform="matrix(0.788 -0.6157 0.6157 0.788 -223.4594 463.3409)" fill="#24FFF8" width="3.9" height="890"/>
							</g>
							<g>
								
									<rect x="559.1" y="111.2" transform="matrix(0.7431 -0.6691 0.6691 0.7431 -228.0242 518.2947)" fill="#24FFF8" width="3.9" height="890"/>
							</g>
							<g>
								
									<rect x="559.1" y="111.2" transform="matrix(0.7193 -0.6947 0.6947 0.7193 -228.8656 545.8587)" fill="#24FFF8" width="3.9" height="890"/>
							</g>
							<g>
								
									<rect x="559.1" y="111.2" transform="matrix(0.6947 -0.7193 0.7193 0.6947 -228.7434 573.4318)" fill="#24FFF8" width="3.9" height="890"/>
							</g>
							<g>
								
									<rect x="559.1" y="111.2" transform="matrix(0.6691 -0.7431 0.7431 0.6691 -227.6599 600.9884)" fill="#24FFF8" width="3.9" height="890"/>
							</g>
							<g>
								
									<rect x="559.1" y="111.2" transform="matrix(0.6157 -0.788 0.788 0.6157 -222.6089 655.9017)" fill="#24FFF8" width="3.9" height="890"/>
							</g>
							<g>
								
									<rect x="559.1" y="111.2" transform="matrix(0.5878 -0.809 0.809 0.5878 -218.6537 683.1869)" fill="#24FFF8" width="3.9" height="890"/>
							</g>
							<g>
								
									<rect x="559.1" y="111.2" transform="matrix(0.5592 -0.829 0.829 0.5592 -213.743 710.3271)" fill="#24FFF8" width="3.9" height="890"/>
							</g>
							<g>
								<polygon fill="#24FFF8" points="937.4,793.6 182.7,322 184.8,318.7 939.5,790.3 								"/>
							</g>
							<g>
								
									<rect x="559.1" y="111.2" transform="matrix(0.4695 -0.8829 0.8829 0.4695 -193.3843 790.4722)" fill="#24FFF8" width="3.9" height="890"/>
							</g>
							<g>
								
									<rect x="559.1" y="111.2" transform="matrix(0.4384 -0.8988 0.8988 0.4384 -184.747 816.6615)" fill="#24FFF8" width="3.9" height="890"/>
							</g>
							<g>
								
									<rect x="559.1" y="111.2" transform="matrix(0.4067 -0.9135 0.9135 0.4067 -175.203 842.5303)" fill="#24FFF8" width="3.9" height="890"/>
							</g>
							<g>
								
									<rect x="559.1" y="111.2" transform="matrix(0.3746 -0.9272 0.9272 0.3746 -164.7594 868.0516)" fill="#24FFF8" width="3.9" height="890"/>
							</g>
							<g>
								
									<rect x="559.1" y="111.2" transform="matrix(0.309 -0.9511 0.9511 0.309 -141.2332 917.9283)" fill="#24FFF8" width="3.9" height="890"/>
							</g>
							<g>
								
									<rect x="559.1" y="111.2" transform="matrix(0.2756 -0.9613 0.9613 0.2756 -128.1796 942.2166)" fill="#24FFF8" width="3.9" height="890"/>
							</g>
							<g>
								
									<rect x="559.1" y="111.2" transform="matrix(0.2419 -0.9703 0.9703 0.2419 -114.2872 966.0372)" fill="#24FFF8" width="3.9" height="890"/>
							</g>
							<g>
								
									<rect x="559.1" y="111.2" transform="matrix(0.2079 -0.9781 0.9781 0.2079 -99.5717 989.3572)" fill="#24FFF8" width="3.9" height="890"/>
							</g>
							<g>
								
									<rect x="559.1" y="111.2" transform="matrix(0.1392 -0.9903 0.9903 0.1392 -67.7421 1034.3866)" fill="#24FFF8" width="3.9" height="890"/>
							</g>
							<g>
								
									<rect x="559.1" y="111.2" transform="matrix(0.1045 -0.9945 0.9945 0.1045 -50.6721 1056.0431)" fill="#24FFF8" width="3.9" height="890"/>
							</g>
							<g>
								
									<rect x="559.1" y="111.2" transform="matrix(6.975626e-02 -0.9976 0.9976 6.975626e-02 -32.8528 1077.0902)" fill="#24FFF8" width="3.9" height="890"/>
							</g>
							<g>
								
									<rect x="559.1" y="111.2" transform="matrix(3.489961e-02 -0.9994 0.9994 3.489961e-02 -14.3101 1097.4998)" fill="#24FFF8" width="3.9" height="890"/>
							</g>
							<g>
								
									<rect x="116.1" y="554.2" transform="matrix(0.9994 -3.460093e-02 3.460093e-02 0.9994 -18.9076 19.7473)" fill="#24FFF8" width="890" height="3.9"/>
							</g>
							<g>
								
									<rect x="116.1" y="554.2" transform="matrix(0.9976 -6.921665e-02 6.921665e-02 0.9976 -37.1499 40.1708)" fill="#24FFF8" width="890" height="3.9"/>
							</g>
							<g>
								
									<rect x="116.1" y="554.2" transform="matrix(0.9946 -0.1037 0.1037 0.9946 -54.6639 61.2026)" fill="#24FFF8" width="890" height="3.9"/>
							</g>
							<g>
								
									<rect x="116.1" y="554.2" transform="matrix(0.9904 -0.1383 0.1383 0.9904 -71.5053 82.9175)" fill="#24FFF8" width="890" height="3.9"/>
							</g>
							<g>
								
									<rect x="116.1" y="554.2" transform="matrix(0.9782 -0.2075 0.2075 0.9782 -103.1701 128.4992)" fill="#24FFF8" width="890" height="3.9"/>
							</g>
							<g>
								
									<rect x="116.1" y="554.2" transform="matrix(0.9702 -0.2422 0.2422 0.9702 -117.981 152.4303)" fill="#24FFF8" width="890" height="3.9"/>
							</g>
							<g>
								
									<rect x="116.1" y="554.2" transform="matrix(0.9614 -0.275 0.275 0.9614 -131.3105 175.7434)" fill="#24FFF8" width="890" height="3.9"/>
							</g>
							<g>
								
									<rect x="116.1" y="554.2" transform="matrix(0.9509 -0.3095 0.3095 0.9509 -144.5961 200.9945)" fill="#24FFF8" width="890" height="3.9"/>
							</g>
							<g>
								
									<rect x="116.1" y="554.2" transform="matrix(0.9273 -0.3742 0.3742 0.9273 -167.354 250.3757)" fill="#24FFF8" width="890" height="3.9"/>
							</g>
							<g>
								
									<rect x="116.1" y="554.2" transform="matrix(0.9135 -0.4068 0.4068 0.9135 -177.7335 276.3833)" fill="#24FFF8" width="890" height="3.9"/>
							</g>
							<g>
								
									<rect x="116.1" y="554.2" transform="matrix(0.8993 -0.4374 0.4374 0.8993 -186.7485 301.4597)" fill="#24FFF8" width="890" height="3.9"/>
							</g>
							<g>
								
									<rect x="116.1" y="554.2" transform="matrix(0.8827 -0.4699 0.4699 0.8827 -195.535 328.8868)" fill="#24FFF8" width="890" height="3.9"/>
							</g>
							<g>
								<polygon fill="#24FFF8" points="184.8,793.6 182.7,790.3 937.4,318.7 939.5,322 								"/>
							</g>
							<g>
								
									<rect x="116.1" y="554.2" transform="matrix(0.8285 -0.5599 0.5599 0.8285 -215.2058 409.5344)" fill="#24FFF8" width="890" height="3.9"/>
							</g>
							<g>
								
									<rect x="116.1" y="554.2" transform="matrix(0.8091 -0.5876 0.5876 0.8091 -219.7181 435.8495)" fill="#24FFF8" width="890" height="3.9"/>
							</g>
							<g>
								
									<rect x="116.1" y="554.2" transform="matrix(0.7874 -0.6165 0.6165 0.7874 -223.5542 464.1455)" fill="#24FFF8" width="890" height="3.9"/>
							</g>
							<g>
								
									<rect x="116.1" y="554.2" transform="matrix(0.7428 -0.6695 0.6695 0.7428 -228.0455 518.7288)" fill="#24FFF8" width="890" height="3.9"/>
							</g>
							<g>
								
									<rect x="116.1" y="554.2" transform="matrix(0.7202 -0.6938 0.6938 0.7202 -228.8523 544.9258)" fill="#24FFF8" width="890" height="3.9"/>
							</g>
							<g>
								
									<rect x="116.1" y="554.2" transform="matrix(0.6938 -0.7202 0.7202 0.6938 -228.7219 574.4137)" fill="#24FFF8" width="890" height="3.9"/>
							</g>
							<g>
								
									<rect x="116.1" y="554.2" transform="matrix(0.6695 -0.7428 0.7428 0.6695 -227.6828 600.5741)" fill="#24FFF8" width="890" height="3.9"/>
							</g>
							<g>
								
									<rect x="116.1" y="554.2" transform="matrix(0.6165 -0.7874 0.7874 0.6165 -222.7151 655.0641)" fill="#24FFF8" width="890" height="3.9"/>
							</g>
							<g>
								
									<rect x="116.1" y="554.2" transform="matrix(0.5876 -0.8091 0.8091 0.5876 -218.6284 683.3417)" fill="#24FFF8" width="890" height="3.9"/>
							</g>
							<g>
								
									<rect x="116.1" y="554.2" transform="matrix(0.5599 -0.8286 0.8286 0.5599 -213.8695 709.6855)" fill="#24FFF8" width="890" height="3.9"/>
							</g>
							<g>
								
									<rect x="116.1" y="554.2" transform="matrix(0.5291 -0.8485 0.8485 0.5291 -207.7215 737.9895)" fill="#24FFF8" width="890" height="3.9"/>
							</g>
							<g>
								
									<rect x="116.1" y="554.2" transform="matrix(0.4699 -0.8827 0.8827 0.4699 -193.4966 790.1137)" fill="#24FFF8" width="890" height="3.9"/>
							</g>
							<g>
								
									<rect x="116.1" y="554.2" transform="matrix(0.4374 -0.8993 0.8993 0.4374 -184.4642 817.4695)" fill="#24FFF8" width="890" height="3.9"/>
							</g>
							<g>
								
									<rect x="116.1" y="554.2" transform="matrix(0.4069 -0.9135 0.9135 0.4069 -175.2546 842.3978)" fill="#24FFF8" width="890" height="3.9"/>
							</g>
							<g>
								
									<rect x="116.1" y="554.2" transform="matrix(0.3742 -0.9273 0.9273 0.3742 -164.6369 868.3375)" fill="#24FFF8" width="890" height="3.9"/>
							</g>
							<g>
								
									<rect x="116.1" y="554.2" transform="matrix(0.3095 -0.9509 0.9509 0.3095 -141.4138 917.5767)" fill="#24FFF8" width="890" height="3.9"/>
							</g>
							<g>
								
									<rect x="116.1" y="554.2" transform="matrix(0.2749 -0.9615 0.9615 0.2749 -127.8959 942.7245)" fill="#24FFF8" width="890" height="3.9"/>
							</g>
							<g>
								
									<rect x="116.1" y="554.2" transform="matrix(0.2421 -0.9703 0.9703 0.2421 -114.3403 965.9473)" fill="#24FFF8" width="890" height="3.9"/>
							</g>
							<g>
								
									<rect x="116.1" y="554.2" transform="matrix(0.2074 -0.9782 0.9782 0.2074 -99.3607 989.6793)" fill="#24FFF8" width="890" height="3.9"/>
							</g>
							<g>
								
									<rect x="116.1" y="554.2" transform="matrix(0.1383 -0.9904 0.9904 0.1383 -67.3027 1034.9695)" fill="#24FFF8" width="890" height="3.9"/>
							</g>
							<g>
								
									<rect x="116.1" y="554.2" transform="matrix(0.1037 -0.9946 0.9946 0.1037 -50.2554 1056.5486)" fill="#24FFF8" width="890" height="3.9"/>
							</g>
							<g>
								
									<rect x="116.1" y="554.2" transform="matrix(6.922369e-02 -0.9976 0.9976 6.922369e-02 -32.5726 1077.405)" fill="#24FFF8" width="890" height="3.9"/>
							</g>
							<g>
								
									<rect x="116.1" y="554.2" transform="matrix(3.470361e-02 -0.9994 0.9994 3.470361e-02 -14.2039 1097.6128)" fill="#24FFF8" width="890" height="3.9"/>
							</g>
						</g>
					</g>
					<g>
						<defs>
							<path id="SVGID_00000062874080925572184070000013994388951804595081_" d="M561.1,92.8c-255.9,0-463.3,207.4-463.3,463.3
								s207.4,463.3,463.3,463.3c255.9,0,463.3-207.4,463.3-463.3S817,92.8,561.1,92.8z M561.1,950.8
								c-217.9,0-394.6-176.7-394.6-394.6c0-217.9,176.7-394.6,394.6-394.6c217.9,0,394.6,176.7,394.6,394.6
								C955.7,774.1,779,950.8,561.1,950.8z"/>
						</defs>
						<clipPath id="SVGID_00000140695222835456510140000002041290235161559685_">
							<use xlink:href="#SVGID_00000062874080925572184070000013994388951804595081_"  overflow="visible"/>
						</clipPath>
						<g clip-path="url(#SVGID_00000140695222835456510140000002041290235161559685_)">
							<g>
								<rect x="557.2" y="111.2" fill="#24FFF8" width="7.9" height="890"/>
							</g>
							<g>
								
									<rect x="557.2" y="111.2" transform="matrix(0.9848 -0.1736 0.1736 0.9848 -88.051 105.8809)" fill="#FFFFFF" width="7.9" height="890"/>
							</g>
							<g>
								
									<rect x="557.2" y="111.2" transform="matrix(0.9397 -0.342 0.342 0.9397 -156.3799 225.4453)" fill="#24FFF8" width="7.9" height="890"/>
							</g>
							<g>
								
									<rect x="557.2" y="111.2" transform="matrix(0.866 -0.5 0.5 0.866 -202.9075 355.0574)" fill="#FFFFFF" width="7.9" height="890"/>
							</g>
							<g>
								
									<rect x="557.2" y="111.2" transform="matrix(0.766 -0.6428 0.6428 0.766 -226.2221 490.7793)" fill="#24FFF8" width="7.9" height="890"/>
							</g>
							<g>
								
									<rect x="557.2" y="111.2" transform="matrix(0.6428 -0.766 0.766 0.6428 -225.6143 628.4892)" fill="#FFFFFF" width="7.9" height="890"/>
							</g>
							<g>
								
									<rect x="557.2" y="111.2" transform="matrix(0.5 -0.866 0.866 0.5 -201.1009 764.0029)" fill="#24FFF8" width="7.9" height="890"/>
							</g>
							<g>
								
									<rect x="557.2" y="111.2" transform="matrix(0.342 -0.9397 0.9397 0.342 -153.432 893.1953)" fill="#FFFFFF" width="7.9" height="890"/>
							</g>
							<g>
								
									<rect x="557.2" y="111.2" transform="matrix(0.1736 -0.9848 0.9848 0.1736 -84.0486 1012.1514)" fill="#24FFF8" width="7.9" height="890"/>
							</g>
							<g>
								<rect x="116.1" y="552.2" fill="#FFFFFF" width="890" height="7.9"/>
							</g>
							<g>
								
									<rect x="116.1" y="552.2" transform="matrix(0.9848 -0.1739 0.1739 0.9848 -88.1721 106.0557)" fill="#24FFF8" width="890" height="7.9"/>
							</g>
							<g>
								
									<rect x="116.1" y="552.2" transform="matrix(0.9398 -0.3418 0.3418 0.9398 -156.2898 225.2495)" fill="#FFFFFF" width="890" height="7.9"/>
							</g>
							<g>
								
									<rect x="116.1" y="552.2" transform="matrix(0.8657 -0.5005 0.5005 0.8657 -203.0331 355.5353)" fill="#24FFF8" width="890" height="7.9"/>
							</g>
							<g>
								
									<rect x="116.1" y="552.2" transform="matrix(0.766 -0.6429 0.6429 0.766 -226.2308 490.8834)" fill="#FFFFFF" width="890" height="7.9"/>
							</g>
							<g>
								
									<rect x="116.1" y="552.2" transform="matrix(0.6429 -0.766 0.766 0.6429 -225.6243 628.3771)" fill="#24FFF8" width="890" height="7.9"/>
							</g>
							<g>
								
									<rect x="116.1" y="552.2" transform="matrix(0.5005 -0.8657 0.8657 0.5005 -201.2241 763.5506)" fill="#FFFFFF" width="890" height="7.9"/>
							</g>
							<g>
								
									<rect x="116.1" y="552.2" transform="matrix(0.3418 -0.9398 0.9398 0.3418 -153.338 893.3961)" fill="#24FFF8" width="890" height="7.9"/>
							</g>
							<g>
								
									<rect x="116.1" y="552.2" transform="matrix(0.174 -0.9848 0.9848 0.174 -84.2008 1011.938)" fill="#FFFFFF" width="890" height="7.9"/>
							</g>
						</g>
					</g>
				</g>
			</g>
			<g>
				
					<radialGradient id="SVGID_00000090974937266529458630000014863820417474550694_" cx="561.0917" cy="558.1121" r="263.7794" gradientUnits="userSpaceOnUse">
					<stop  offset="0.4595" style="stop-color:#000000"/>
					<stop  offset="0.4978" style="stop-color:#0A0000"/>
					<stop  offset="0.5619" style="stop-color:#230001"/>
					<stop  offset="0.644" style="stop-color:#4D0001"/>
					<stop  offset="0.7407" style="stop-color:#880002"/>
					<stop  offset="0.8488" style="stop-color:#D10004"/>
					<stop  offset="0.8649" style="stop-color:#DD0004"/>
					<stop  offset="1" style="stop-color:#000000"/>
				</radialGradient>
				<circle fill="url(#SVGID_00000090974937266529458630000014863820417474550694_)" cx="561.1" cy="558.1" r="263.8"/>
				<g>
					<path fill="#FF3F58" d="M561.1,787.3c-126.4,0-229.1-102.8-229.1-229.1c0-126.4,102.8-229.1,229.1-229.1
						s229.1,102.8,229.1,229.1C790.2,684.5,687.4,787.3,561.1,787.3z M561.1,346.9c-116.4,0-211.2,94.7-211.2,211.2
						c0,116.4,94.7,211.2,211.2,211.2s211.2-94.7,211.2-211.2C772.3,441.7,677.5,346.9,561.1,346.9z"/>
				</g>
				<g>
					<path fill="#FFFFFF" d="M561.1,781.2c-123,0-223-100.1-223-223s100.1-223.1,223-223.1s223.1,100.1,223.1,223.1
						S684.1,781.2,561.1,781.2z M561.1,340.8c-119.8,0-217.3,97.5-217.3,217.3c0,119.8,97.5,217.3,217.3,217.3
						c119.8,0,217.3-97.5,217.3-217.3C778.4,438.3,680.9,340.8,561.1,340.8z"/>
				</g>
			</g>
			<g>
				<g>
					<path fill="#FFFFFF" d="M268.6,788.8c0-5,2.6-7.9,7.5-7.9c4.8,0,7.5,2.9,7.5,7.9v16.3c0,5-2.6,7.9-7.5,7.9
						c-4.8,0-7.5-2.9-7.5-7.9V788.8z M273.6,805.4c0,2.2,1,3.1,2.6,3.1c1.6,0,2.6-0.9,2.6-3.1v-16.9c0-2.2-1-3.1-2.6-3.1
						c-1.6,0-2.6,0.9-2.6,3.1V805.4z"/>
				</g>
			</g>
			<g>
				<g>
					<path fill="#FFFFFF" d="M271.6,337.2c-5,0-7.7-2.9-7.7-7.9v-2.5c0-3,0.9-5.3,3-6.5c-2.1-1.1-3-3.2-3-6.3v-1
						c0-5,2.7-7.9,7.7-7.9c5,0,7.7,2.9,7.7,7.9v1c0,3.1-1,5.2-3,6.3c2.2,1.2,3,3.5,3,6.5v2.5C279.3,334.3,276.6,337.2,271.6,337.2z
						 M268.9,314.9c0,2.5,1.2,3.3,2.8,3.3c1.6,0,2.8-0.8,2.8-3.3v-1.7c0-2.8-1.2-3.6-2.8-3.6c-1.6,0-2.8,0.8-2.8,3.6V314.9z
						 M271.6,332.7c1.6,0,2.7-0.8,2.8-3.5v-2.9c0-2.5-1-3.5-2.8-3.5c-1.7,0-2.8,1.1-2.8,3.5v2.9C268.9,332,270.1,332.7,271.6,332.7z
						"/>
					<path fill="#FFFFFF" d="M281.9,313c0-5,2.6-7.9,7.5-7.9c4.8,0,7.5,2.9,7.5,7.9v16.3c0,5-2.6,7.9-7.5,7.9
						c-4.8,0-7.5-2.9-7.5-7.9V313z M286.8,329.6c0,2.2,1,3.1,2.6,3.1c1.6,0,2.6-0.9,2.6-3.1v-16.9c0-2.2-1-3.1-2.6-3.1
						c-1.6,0-2.6,0.9-2.6,3.1V329.6z"/>
				</g>
			</g>
			<g>
				<g>
					<path fill="#FFFFFF" d="M349.3,227.7c3.8,0,4.7-1.8,5.4-3.9h3.3v31.4h-4.9v-23.9h-3.8V227.7z"/>
					<path fill="#FFFFFF" d="M363.6,231.3c0-5,2.6-7.9,7.5-7.9c4.8,0,7.5,2.9,7.5,7.9v16.3c0,5-2.6,7.9-7.5,7.9
						c-4.8,0-7.5-2.9-7.5-7.9V231.3z M368.5,247.9c0,2.2,1,3.1,2.6,3.1c1.6,0,2.6-0.9,2.6-3.1V231c0-2.2-1-3.1-2.6-3.1
						c-1.6,0-2.6,0.9-2.6,3.1V247.9z"/>
					<path fill="#FFFFFF" d="M381.3,231.3c0-5,2.6-7.9,7.5-7.9c4.8,0,7.5,2.9,7.5,7.9v16.3c0,5-2.6,7.9-7.5,7.9
						c-4.8,0-7.5-2.9-7.5-7.9V231.3z M386.3,247.9c0,2.2,1,3.1,2.6,3.1c1.6,0,2.6-0.9,2.6-3.1V231c0-2.2-1-3.1-2.6-3.1
						c-1.6,0-2.6,0.9-2.6,3.1V247.9z"/>
				</g>
			</g>
			<g>
				<g>
					<path fill="#FFFFFF" d="M478.1,180.7c3.8,0,4.7-1.8,5.4-3.9h3.3v31.4h-4.9v-23.9h-3.8V180.7z"/>
					<path fill="#FFFFFF" d="M500,180.9c-1.6,0-2.6,0.9-2.6,3.1v3.4h-4.7v-3c0-5,2.5-7.9,7.3-7.9c4.8,0,7.3,2.9,7.3,7.9
						c0,9.9-9.8,13.5-9.8,18.7c0,0.2,0,0.4,0,0.7h9.3v4.5h-14.2v-3.9c0-9.2,9.8-10.8,9.8-19.8C502.5,181.6,501.5,180.9,500,180.9z"
						/>
					<path fill="#FFFFFF" d="M510.1,184.3c0-5,2.6-7.9,7.5-7.9c4.8,0,7.5,2.9,7.5,7.9v16.3c0,5-2.6,7.9-7.5,7.9
						c-4.8,0-7.5-2.9-7.5-7.9V184.3z M515,200.9c0,2.2,1,3.1,2.6,3.1c1.6,0,2.6-0.9,2.6-3.1V184c0-2.2-1-3.1-2.6-3.1
						c-1.6,0-2.6,0.9-2.6,3.1V200.9z"/>
				</g>
			</g>
			<g>
				<g>
					<path fill="#FFFFFF" d="M606.8,181.8c3.8,0,4.7-1.8,5.4-3.9h3.3v31.4h-4.9v-23.9h-3.8V181.8z"/>
					<path fill="#FFFFFF" d="M620.3,199.1l9-21.2h5.4v21.2h2.3v4.5h-2.3v5.7h-4.8v-5.7h-9.5V199.1z M629.8,199.1v-11.8l-5,11.8
						H629.8z"/>
					<path fill="#FFFFFF" d="M638.8,185.4c0-5,2.6-7.9,7.5-7.9c4.8,0,7.5,2.9,7.5,7.9v16.3c0,5-2.6,7.9-7.5,7.9
						c-4.8,0-7.5-2.9-7.5-7.9V185.4z M643.8,202c0,2.2,1,3.1,2.6,3.1c1.6,0,2.6-0.9,2.6-3.1v-16.9c0-2.2-1-3.1-2.6-3.1
						c-1.6,0-2.6,0.9-2.6,3.1V202z"/>
				</g>
			</g>
			<g>
				<g>
					<path fill="#FFFFFF" d="M724.4,228.4c3.8,0,4.7-1.8,5.4-3.9h3.3v31.4h-4.9v-23.9h-3.8V228.4z"/>
					<path fill="#FFFFFF" d="M738.7,232.3c0-5.3,2.4-8.2,7.5-8.2c4.8,0,7.3,2.9,7.3,7.9v0.8H749v-1.1c0-2.2-1-3.1-2.6-3.1
						c-1.7,0-2.7,0.9-2.7,3.9v5.7c0.9-1.8,2.4-2.8,4.6-2.8c3.6,0,5.5,2.6,5.5,7.2v5.7c0,5-2.6,7.9-7.5,7.9c-4.8,0-7.5-2.9-7.5-7.9
						V232.3z M743.7,243v5.6c0,2.2,1,3,2.6,3c1.6,0,2.6-0.8,2.6-3V243c0-2.2-1-3.1-2.6-3.1C744.7,239.9,743.7,240.8,743.7,243z"/>
					<path fill="#FFFFFF" d="M756.4,232c0-5,2.6-7.9,7.5-7.9c4.8,0,7.5,2.9,7.5,7.9v16.3c0,5-2.6,7.9-7.5,7.9
						c-4.8,0-7.5-2.9-7.5-7.9V232z M761.3,248.7c0,2.2,1,3.1,2.6,3.1c1.6,0,2.6-0.9,2.6-3.1v-16.9c0-2.2-1-3.1-2.6-3.1
						c-1.6,0-2.6,0.9-2.6,3.1V248.7z"/>
				</g>
			</g>
			<g>
				<g>
					<path fill="#FFFFFF" d="M813.9,317.3c3.8,0,4.7-1.8,5.4-3.9h3.3v31.4h-4.9v-23.9h-3.8V317.3z"/>
					<path fill="#FFFFFF" d="M835.7,345c-5,0-7.7-2.9-7.7-7.9v-2.5c0-3,0.9-5.3,3-6.5c-2.1-1.1-3-3.2-3-6.3v-1c0-5,2.7-7.9,7.7-7.9
						c5,0,7.7,2.9,7.7,7.9v1c0,3.1-1,5.2-3,6.3c2.2,1.2,3,3.5,3,6.5v2.5C843.4,342.2,840.7,345,835.7,345z M832.9,322.8
						c0,2.5,1.2,3.3,2.8,3.3c1.6,0,2.8-0.8,2.8-3.3V321c0-2.8-1.2-3.6-2.8-3.6c-1.6,0-2.8,0.8-2.8,3.6V322.8z M835.7,340.6
						c1.6,0,2.7-0.8,2.8-3.5v-2.9c0-2.5-1-3.5-2.8-3.5c-1.7,0-2.8,1.1-2.8,3.5v2.9C832.9,339.8,834.1,340.6,835.7,340.6z"/>
					<path fill="#FFFFFF" d="M846,320.8c0-5,2.6-7.9,7.5-7.9c4.8,0,7.5,2.9,7.5,7.9v16.3c0,5-2.6,7.9-7.5,7.9
						c-4.8,0-7.5-2.9-7.5-7.9V320.8z M850.9,337.5c0,2.2,1,3.1,2.6,3.1c1.6,0,2.6-0.9,2.6-3.1v-16.9c0-2.2-1-3.1-2.6-3.1
						c-1.6,0-2.6,0.9-2.6,3.1V337.5z"/>
				</g>
			</g>
			<g>
				<g>
					<path fill="#FFFFFF" d="M876.3,421.9c-1.6,0-2.6,0.9-2.6,3.1v3.4h-4.7v-3c0-5,2.5-7.9,7.3-7.9c4.8,0,7.3,2.9,7.3,7.9
						c0,9.9-9.8,13.5-9.8,18.7c0,0.2,0,0.4,0,0.7h9.3v4.5h-14.2v-3.9c0-9.2,9.8-10.8,9.8-19.8C878.9,422.7,877.9,421.9,876.3,421.9z
						"/>
					<path fill="#FFFFFF" d="M886.4,425.3c0-5,2.6-7.9,7.5-7.9c4.8,0,7.5,2.9,7.5,7.9v16.3c0,5-2.6,7.9-7.5,7.9
						c-4.8,0-7.5-2.9-7.5-7.9V425.3z M891.4,442c0,2.2,1,3.1,2.6,3.1c1.6,0,2.6-0.9,2.6-3.1V425c0-2.2-1-3.1-2.6-3.1
						c-1.6,0-2.6,0.9-2.6,3.1V442z"/>
					<path fill="#FFFFFF" d="M904.2,425.3c0-5,2.6-7.9,7.5-7.9c4.8,0,7.5,2.9,7.5,7.9v16.3c0,5-2.6,7.9-7.5,7.9
						c-4.8,0-7.5-2.9-7.5-7.9V425.3z M909.1,442c0,2.2,1,3.1,2.6,3.1c1.6,0,2.6-0.9,2.6-3.1V425c0-2.2-1-3.1-2.6-3.1
						c-1.6,0-2.6,0.9-2.6,3.1V442z"/>
				</g>
			</g>
			<g>
				<g>
					<path fill="#FFFFFF" d="M900.2,544.3c-1.6,0-2.6,0.9-2.6,3.1v3.4H893v-3c0-5,2.5-7.9,7.3-7.9c4.8,0,7.3,2.9,7.3,7.9
						c0,9.9-9.8,13.5-9.8,18.7c0,0.2,0,0.4,0,0.7h9.3v4.5H893v-3.9c0-9.2,9.8-10.8,9.8-19.8C902.7,545.1,901.8,544.3,900.2,544.3z"
						/>
					<path fill="#FFFFFF" d="M917.9,544.3c-1.6,0-2.6,0.9-2.6,3.1v3.4h-4.7v-3c0-5,2.5-7.9,7.3-7.9c4.8,0,7.3,2.9,7.3,7.9
						c0,9.9-9.8,13.5-9.8,18.7c0,0.2,0,0.4,0,0.7h9.3v4.5h-14.2v-3.9c0-9.2,9.8-10.8,9.8-19.8C920.5,545.1,919.5,544.3,917.9,544.3z
						"/>
					<path fill="#FFFFFF" d="M928,547.7c0-5,2.6-7.9,7.5-7.9c4.8,0,7.5,2.9,7.5,7.9V564c0,5-2.6,7.9-7.5,7.9c-4.8,0-7.5-2.9-7.5-7.9
						V547.7z M933,564.4c0,2.2,1,3.1,2.6,3.1c1.6,0,2.6-0.9,2.6-3.1v-16.9c0-2.2-1-3.1-2.6-3.1c-1.6,0-2.6,0.9-2.6,3.1V564.4z"/>
				</g>
			</g>
			<g>
				<g>
					<path fill="#FFFFFF" d="M876.3,669.7c-1.6,0-2.6,0.9-2.6,3.1v3.4h-4.7v-3c0-5,2.5-7.9,7.3-7.9c4.8,0,7.3,2.9,7.3,7.9
						c0,9.9-9.8,13.5-9.8,18.7c0,0.2,0,0.4,0,0.7h9.3v4.5h-14.2v-3.9c0-9.2,9.8-10.8,9.8-19.8C878.9,670.5,877.9,669.7,876.3,669.7z
						"/>
					<path fill="#FFFFFF" d="M885.7,686.8l9-21.2h5.4v21.2h2.3v4.5H900v5.7h-4.8v-5.7h-9.5V686.8z M895.2,686.8V675l-5,11.8H895.2z"
						/>
					<path fill="#FFFFFF" d="M904.2,673.1c0-5,2.6-7.9,7.5-7.9c4.8,0,7.5,2.9,7.5,7.9v16.3c0,5-2.6,7.9-7.5,7.9
						c-4.8,0-7.5-2.9-7.5-7.9V673.1z M909.1,689.8c0,2.2,1,3.1,2.6,3.1c1.6,0,2.6-0.9,2.6-3.1v-16.9c0-2.2-1-3.1-2.6-3.1
						c-1.6,0-2.6,0.9-2.6,3.1V689.8z"/>
				</g>
			</g>
			<g>
				<g>
					<path fill="#FFFFFF" d="M809.1,774.2c-1.6,0-2.6,0.9-2.6,3.1v3.4h-4.7v-3c0-5,2.5-7.9,7.3-7.9c4.8,0,7.3,2.9,7.3,7.9
						c0,9.9-9.8,13.5-9.8,18.7c0,0.2,0,0.4,0,0.7h9.3v4.5h-14.2v-3.9c0-9.2,9.8-10.8,9.8-19.8C811.7,775,810.7,774.2,809.1,774.2z"
						/>
					<path fill="#FFFFFF" d="M819.3,777.9c0-5.3,2.4-8.2,7.5-8.2c4.8,0,7.3,2.9,7.3,7.9v0.8h-4.7v-1.1c0-2.2-1-3.1-2.6-3.1
						c-1.7,0-2.7,0.9-2.7,3.9v5.7c0.9-1.8,2.4-2.8,4.6-2.8c3.6,0,5.5,2.6,5.5,7.2v5.7c0,5-2.6,7.9-7.5,7.9c-4.8,0-7.5-2.9-7.5-7.9
						V777.9z M824.3,788.6v5.6c0,2.2,1,3,2.6,3c1.6,0,2.6-0.8,2.6-3v-5.6c0-2.2-1-3.1-2.6-3.1C825.3,785.5,824.3,786.4,824.3,788.6z
						"/>
					<path fill="#FFFFFF" d="M837,777.6c0-5,2.6-7.9,7.5-7.9c4.8,0,7.5,2.9,7.5,7.9v16.3c0,5-2.6,7.9-7.5,7.9
						c-4.8,0-7.5-2.9-7.5-7.9V777.6z M841.9,794.2c0,2.2,1,3.1,2.6,3.1c1.6,0,2.6-0.9,2.6-3.1v-16.9c0-2.2-1-3.1-2.6-3.1
						c-1.6,0-2.6,0.9-2.6,3.1V794.2z"/>
				</g>
			</g>
			<g>
				<g>
					
						<linearGradient id="SVGID_00000176763092543712800810000011488319626613351844_" gradientUnits="userSpaceOnUse" x1="561.0922" y1="846.3224" x2="561.0922" y2="933.6504">
						<stop  offset="5.405410e-03" style="stop-color:#2E39FF"/>
						<stop  offset="0.6813" style="stop-color:#0F1253"/>
						<stop  offset="1" style="stop-color:#000000"/>
					</linearGradient>
					<path fill="url(#SVGID_00000176763092543712800810000011488319626613351844_)" d="M673.4,933.7H448.8c-8,0-14.6-6.5-14.6-14.6
						v-58.2c0-8,6.5-14.6,14.6-14.6h224.6c8,0,14.6,6.5,14.6,14.6v58.2C687.9,927.1,681.4,933.7,673.4,933.7z M448.8,850.8
						c-5.6,0-10.1,4.5-10.1,10.1v58.2c0,5.6,4.5,10.1,10.1,10.1h224.6c5.6,0,10.1-4.5,10.1-10.1v-58.2c0-5.6-4.5-10.1-10.1-10.1
						H448.8z"/>
				</g>
				<g>
					<path fill="#FFFFFF" d="M471.5,877.5c0-8.6,4.5-13.5,12.8-13.5c8.3,0,12.8,4.9,12.8,13.5v28c0,8.6-4.5,13.5-12.8,13.5
						c-8.3,0-12.8-4.9-12.8-13.5V877.5z M480,906c0,3.8,1.7,5.3,4.4,5.3c2.7,0,4.4-1.5,4.4-5.3v-29.1c0-3.8-1.7-5.3-4.4-5.3
						c-2.7,0-4.4,1.5-4.4,5.3V906z"/>
					<path fill="#FFFFFF" d="M509.7,877.5c0-8.6,4.5-13.5,12.8-13.5c8.3,0,12.8,4.9,12.8,13.5v28c0,8.6-4.5,13.5-12.8,13.5
						c-8.3,0-12.8-4.9-12.8-13.5V877.5z M518.1,906c0,3.8,1.7,5.3,4.4,5.3c2.7,0,4.4-1.5,4.4-5.3v-29.1c0-3.8-1.7-5.3-4.4-5.3
						c-2.7,0-4.4,1.5-4.4,5.3V906z"/>
					<path fill="#FFFFFF" d="M547.8,877.5c0-8.6,4.5-13.5,12.8-13.5c8.3,0,12.8,4.9,12.8,13.5v28c0,8.6-4.5,13.5-12.8,13.5
						c-8.3,0-12.8-4.9-12.8-13.5V877.5z M556.2,906c0,3.8,1.7,5.3,4.4,5.3c2.7,0,4.4-1.5,4.4-5.3v-29.1c0-3.8-1.7-5.3-4.4-5.3
						c-2.7,0-4.4,1.5-4.4,5.3V906z"/>
					<path fill="#FFFFFF" d="M585.9,877.5c0-8.6,4.5-13.5,12.8-13.5c8.3,0,12.8,4.9,12.8,13.5v28c0,8.6-4.5,13.5-12.8,13.5
						c-8.3,0-12.8-4.9-12.8-13.5V877.5z M594.4,906c0,3.8,1.7,5.3,4.4,5.3c2.7,0,4.4-1.5,4.4-5.3v-29.1c0-3.8-1.7-5.3-4.4-5.3
						c-2.7,0-4.4,1.5-4.4,5.3V906z"/>
					<path fill="#FFFFFF" d="M624,877.5c0-8.6,4.5-13.5,12.8-13.5c8.3,0,12.8,4.9,12.8,13.5v28c0,8.6-4.5,13.5-12.8,13.5
						c-8.3,0-12.8-4.9-12.8-13.5V877.5z M632.5,906c0,3.8,1.7,5.3,4.4,5.3c2.7,0,4.4-1.5,4.4-5.3v-29.1c0-3.8-1.7-5.3-4.4-5.3
						c-2.7,0-4.4,1.5-4.4,5.3V906z"/>
				</g>
			</g>
			
				<radialGradient id="SVGID_00000001658755041656195780000001565271347208879799_" cx="552.1625" cy="3266.4187" r="138.054" gradientTransform="matrix(0.9699 0 0 9.750000e-02 25.5493 531.114)" gradientUnits="userSpaceOnUse">
				<stop  offset="0" style="stop-color:#0613FF"/>
				<stop  offset="0.2531" style="stop-color:#040EBF"/>
				<stop  offset="0.8368" style="stop-color:#01021F"/>
				<stop  offset="0.9459" style="stop-color:#000000"/>
			</radialGradient>
			<ellipse fill="url(#SVGID_00000001658755041656195780000001565271347208879799_)" cx="561.1" cy="849.6" rx="133.9" ry="13.5"/>
		</g>
	</g>
	<g display="inline">
		<path fill="#FFFFFF" d="M535,738.7l-1.3,2.4v8.1h-4.1v-26.2h4.1v11.4l5.4-11.4h4.1l-5.7,11.7l5.7,14.5H539L535,738.7z"/>
		<path fill="#FFFFFF" d="M553.8,741.5l2.8-18.6h5.7v26.2h-3.9v-18.8l-2.8,18.8h-3.9l-3.1-18.5v18.5H545v-26.2h5.7L553.8,741.5z"/>
		<path fill="#FFFFFF" d="M574.4,722.9h3.6l-10.3,26.2H564L574.4,722.9z"/>
		<path fill="#FFFFFF" d="M583.7,749.1h-4.1v-26.2h4.1v11.2h4.7v-11.2h4.2v26.2h-4.2v-11.2h-4.7V749.1z"/>
	</g>
</g>
<g>
	
		<radialGradient id="SVGID_00000000915464554323839250000010769360826569658017_" cx="497.4185" cy="283.8607" r="712.3337" gradientTransform="matrix(0.7035 0 0 0.8914 205.0251 53.4985)" gradientUnits="userSpaceOnUse">
		<stop  offset="1.081080e-02" style="stop-color:#A71100"/>
		<stop  offset="1" style="stop-color:#000000"/>
	</radialGradient>
	
		<ellipse opacity="0.58" fill="url(#SVGID_00000000915464554323839250000010769360826569658017_)" cx="557.4" cy="606.1" rx="374.9" ry="377.2"/>
	<g>
		
			<radialGradient id="SVGID_00000153669270764837089260000002920389268979157407_" cx="561.0558" cy="609.8035" r="488.4407" gradientUnits="userSpaceOnUse">
			<stop  offset="0.3351" style="stop-color:#000000"/>
			<stop  offset="0.3984" style="stop-color:#000104"/>
			<stop  offset="0.4604" style="stop-color:#000310"/>
			<stop  offset="0.5218" style="stop-color:#000723"/>
			<stop  offset="0.583" style="stop-color:#000D3F"/>
			<stop  offset="0.644" style="stop-color:#001463"/>
			<stop  offset="0.7048" style="stop-color:#001C8E"/>
			<stop  offset="0.7655" style="stop-color:#0027C2"/>
			<stop  offset="0.8247" style="stop-color:#0033FD"/>
			<stop  offset="0.827" style="stop-color:#0033FF"/>
			<stop  offset="0.8811" style="stop-color:#0D0AFF"/>
			<stop  offset="1" style="stop-color:#000000"/>
		</radialGradient>
		
			<circle opacity="0.17" fill="url(#SVGID_00000153669270764837089260000002920389268979157407_)" cx="561.1" cy="609.8" r="488.4"/>
		<g>
			
				<linearGradient id="SVGID_00000152962348796800363710000017075147999210952637_" gradientUnits="userSpaceOnUse" x1="561.0564" y1="154.2798" x2="561.0564" y2="1065.3276">
				<stop  offset="0" style="stop-color:#0384FF"/>
				<stop  offset="0.2107" style="stop-color:#024BCB"/>
				<stop  offset="0.4838" style="stop-color:#00048C"/>
				<stop  offset="0.5566" style="stop-color:#000487"/>
				<stop  offset="0.6484" style="stop-color:#000377"/>
				<stop  offset="0.7503" style="stop-color:#00035D"/>
				<stop  offset="0.8596" style="stop-color:#000239"/>
				<stop  offset="0.9736" style="stop-color:#00000C"/>
				<stop  offset="1" style="stop-color:#000000"/>
			</linearGradient>
			<path fill="url(#SVGID_00000152962348796800363710000017075147999210952637_)" d="M561.1,1065.3
				c-251.2,0-455.5-204.3-455.5-455.5s204.3-455.5,455.5-455.5s455.5,204.3,455.5,455.5S812.2,1065.3,561.1,1065.3z M561.1,220.8
				c-214.5,0-389,174.5-389,389s174.5,389,389,389c214.5,0,389-174.5,389-389S775.6,220.8,561.1,220.8z"/>
		</g>
		<g>
			
				<linearGradient id="SVGID_00000034786540279149735330000007538789445905284760_" gradientUnits="userSpaceOnUse" x1="561.0555" y1="231.9159" x2="561.0555" y2="987.6915">
				<stop  offset="0" style="stop-color:#0384FF"/>
				<stop  offset="0.2107" style="stop-color:#024BCB"/>
				<stop  offset="0.4838" style="stop-color:#00048C"/>
				<stop  offset="0.5566" style="stop-color:#000487"/>
				<stop  offset="0.6484" style="stop-color:#000377"/>
				<stop  offset="0.7503" style="stop-color:#00035D"/>
				<stop  offset="0.8596" style="stop-color:#000239"/>
				<stop  offset="0.9736" style="stop-color:#00000C"/>
				<stop  offset="1" style="stop-color:#000000"/>
			</linearGradient>
			<path fill="url(#SVGID_00000034786540279149735330000007538789445905284760_)" d="M561.1,987.7c-208.4,0-377.9-169.5-377.9-377.9
				c0-208.4,169.5-377.9,377.9-377.9c208.4,0,377.9,169.5,377.9,377.9C938.9,818.2,769.4,987.7,561.1,987.7z M561.1,254.1
				c-196.1,0-355.7,159.6-355.7,355.7c0,196.1,159.6,355.7,355.7,355.7c196.1,0,355.7-159.6,355.7-355.7
				C916.8,413.7,757.2,254.1,561.1,254.1z"/>
		</g>
		<g>
			
				<linearGradient id="SVGID_00000131339689630362200820000014490775052280881840_" gradientUnits="userSpaceOnUse" x1="561.0555" y1="268.8735" x2="561.0555" y2="950.7358">
				<stop  offset="0" style="stop-color:#0384FF"/>
				<stop  offset="0.2107" style="stop-color:#024BCB"/>
				<stop  offset="0.4838" style="stop-color:#00048C"/>
				<stop  offset="0.5566" style="stop-color:#000487"/>
				<stop  offset="0.6484" style="stop-color:#000377"/>
				<stop  offset="0.7503" style="stop-color:#00035D"/>
				<stop  offset="0.8596" style="stop-color:#000239"/>
				<stop  offset="0.9736" style="stop-color:#00000C"/>
				<stop  offset="1" style="stop-color:#000000"/>
			</linearGradient>
			<path fill="url(#SVGID_00000131339689630362200820000014490775052280881840_)" d="M561.1,950.7c-188,0-340.9-152.9-340.9-340.9
				s152.9-340.9,340.9-340.9c188,0,340.9,152.9,340.9,340.9S749,950.7,561.1,950.7z M561.1,280c-181.9,0-329.8,148-329.8,329.8
				c0,181.9,148,329.8,329.8,329.8c181.9,0,329.8-148,329.8-329.8C890.9,427.9,742.9,280,561.1,280z"/>
		</g>
		<g>
			
				<linearGradient id="SVGID_00000045582914006982658940000005068368280389628342_" gradientUnits="userSpaceOnUse" x1="561.0565" y1="185.6919" x2="561.0565" y2="1033.9136">
				<stop  offset="0" style="stop-color:#FFFFFF"/>
				<stop  offset="0.7405" style="stop-color:#000000"/>
			</linearGradient>
			<path fill="url(#SVGID_00000045582914006982658940000005068368280389628342_)" d="M561.1,1033.9
				c-233.9,0-424.1-190.3-424.1-424.1c0-233.9,190.3-424.1,424.1-424.1c233.9,0,424.1,190.3,424.1,424.1
				C985.2,843.7,794.9,1033.9,561.1,1033.9z M561.1,191.2c-230.8,0-418.6,187.8-418.6,418.6c0,230.8,187.8,418.6,418.6,418.6
				c230.8,0,418.6-187.8,418.6-418.6C979.6,379,791.9,191.2,561.1,191.2z"/>
		</g>
		<g>
			<g>
				<path fill="#FFFFFF" d="M155.7,948.9c7.5,0,9.2-3.6,10.7-7.8h6.6v62.1h-9.8v-47.4h-7.5V948.9z"/>
			</g>
		</g>
		<g>
			<g>
				<path fill="#FFFFFF" d="M14.3,583.4c-3.1,0-5.1,1.7-5.1,6.1v6.7H0v-6c0-9.9,5-15.6,14.5-15.6c9.6,0,14.5,5.7,14.5,15.6
					c0,19.5-19.4,26.8-19.4,37c0,0.4,0,0.9,0.1,1.3h18.5v8.9H0v-7.6c0-18.3,19.3-21.3,19.3-39.2C19.3,584.9,17.4,583.4,14.3,583.4z"
					/>
			</g>
		</g>
		<g>
			<g>
				<path fill="#FFFFFF" d="M179.6,196.9c0-5.6-2-7.1-5.1-7.1c-3.1,0-5.1,1.7-5.1,6.1v4h-9.2v-3.4c0-9.9,5-15.6,14.5-15.6
					c9.6,0,14.5,5.7,14.5,15.6v1.6c0,6.7-2.1,10.8-6.8,12.8c4.9,2.1,6.8,6.7,6.8,13v4.9c0,9.9-5,15.6-14.5,15.6
					c-9.6,0-14.5-5.7-14.5-15.6v-5.1h9.2v5.8c0,4.4,2,6.1,5.1,6.1c3.1,0,5.1-1.5,5.1-7v-4.9c0-5.8-2-7.9-6.4-7.9h-3.3v-8.9h3.8
					c3.6,0,5.9-1.6,5.9-6.6V196.9z"/>
			</g>
		</g>
		<g>
			<g>
				<path fill="#FFFFFF" d="M544.7,61l17.7-42H573v42h4.6v8.9H573v11.3h-9.6V69.8h-18.8V61z M563.5,61V37.6L553.6,61H563.5z"/>
			</g>
		</g>
		<g>
			<g>
				<path fill="#FFFFFF" d="M930.9,212.6v5.8c0,4.4,2,6,5.1,6c3.1,0,5.1-1.6,5.1-6v-13.7c0-4.4-2-6.1-5.1-6.1
					c-3.1,0-5.1,1.7-5.1,6.1v1.9h-9.2l1.8-36h25.7v8.9h-16.9l-0.8,14.8c1.8-2.9,4.6-4.5,8.5-4.5c7.2,0,10.8,5.1,10.8,14.2v13.8
					c0,9.9-5,15.6-14.5,15.6c-9.6,0-14.5-5.7-14.5-15.6v-5.1H930.9z"/>
			</g>
		</g>
		<g>
			<g>
				<path fill="#FFFFFF" d="M1089.6,594.3c0-10.5,4.8-16.1,14.9-16.1c9.6,0,14.5,5.7,14.5,15.6v1.6h-9.2v-2.2c0-4.4-2-6.1-5.1-6.1
					c-3.5,0-5.4,1.7-5.4,7.6V606c1.7-3.5,4.7-5.5,9-5.5c7.2,0,10.8,5.1,10.8,14.2v11.4c0,9.9-5.2,15.6-14.8,15.6
					c-9.6,0-14.8-5.7-14.8-15.6V594.3z M1099.4,615.5v11.2c0,4.4,2,6,5.1,6s5.1-1.6,5.1-6v-11.2c0-4.4-2-6.1-5.1-6.1
					S1099.4,611.1,1099.4,615.5z"/>
			</g>
		</g>
		<g>
			<g>
				<path fill="#FFFFFF" d="M974.8,941.1v8.5l-14.4,53.6h-9.8l14.3-53.2h-19.4v-8.9H974.8z"/>
			</g>
		</g>
		<g>
			
				<linearGradient id="SVGID_00000155118634160709582240000011634975493666260881_" gradientUnits="userSpaceOnUse" x1="561.0565" y1="346.8842" x2="561.0565" y2="869.0287">
				<stop  offset="0" style="stop-color:#EE1E00"/>
				<stop  offset="0.239" style="stop-color:#A40F03"/>
				<stop  offset="0.4784" style="stop-color:#5D0006"/>
				<stop  offset="0.8216" style="stop-color:#3D0302"/>
				<stop  offset="1" style="stop-color:#2B0500"/>
			</linearGradient>
			<path fill="url(#SVGID_00000155118634160709582240000011634975493666260881_)" d="M561.1,914.7c-169.1,0-306.7-137.6-306.7-306.7
				c0-169.1,137.6-306.7,306.7-306.7c169.1,0,306.7,137.6,306.7,306.7C867.8,777.1,730.2,914.7,561.1,914.7z M561.1,345.6
				c-144.7,0-262.4,117.7-262.4,262.4c0,144.7,117.7,262.4,262.4,262.4S823.5,752.6,823.5,608C823.5,463.3,705.7,345.6,561.1,345.6z
				"/>
		</g>
		<g>
			
				<radialGradient id="SVGID_00000083809295457293769640000013871798773729076103_" cx="561.0559" cy="609.8035" r="314.8038" gradientUnits="userSpaceOnUse">
				<stop  offset="0.4595" style="stop-color:#000000"/>
				<stop  offset="0.5675" style="stop-color:#020000"/>
				<stop  offset="0.6232" style="stop-color:#0A0000"/>
				<stop  offset="0.667" style="stop-color:#170000"/>
				<stop  offset="0.7045" style="stop-color:#2A0001"/>
				<stop  offset="0.7381" style="stop-color:#430001"/>
				<stop  offset="0.7689" style="stop-color:#610002"/>
				<stop  offset="0.7974" style="stop-color:#860002"/>
				<stop  offset="0.8236" style="stop-color:#AE0003"/>
				<stop  offset="0.8486" style="stop-color:#DD0004"/>
				<stop  offset="0.8699" style="stop-color:#A90003"/>
				<stop  offset="0.894" style="stop-color:#760002"/>
				<stop  offset="0.9177" style="stop-color:#4C0001"/>
				<stop  offset="0.9406" style="stop-color:#2B0001"/>
				<stop  offset="0.9624" style="stop-color:#130000"/>
				<stop  offset="0.9827" style="stop-color:#050000"/>
				<stop  offset="1" style="stop-color:#000000"/>
			</radialGradient>
			<circle fill="url(#SVGID_00000083809295457293769640000013871798773729076103_)" cx="561.1" cy="609.8" r="314.8"/>
			<g>
				<path fill="#FF3F58" d="M561.1,883.3c-150.8,0-273.5-122.7-273.5-273.5s122.7-273.5,273.5-273.5
					c150.8,0,273.5,122.7,273.5,273.5S711.8,883.3,561.1,883.3z M561.1,357.8c-139,0-252,113.1-252,252s113.1,252,252,252
					c139,0,252-113.1,252-252S700,357.8,561.1,357.8z"/>
			</g>
			<g>
				<path fill="#FFFFFF" d="M561.1,876c-146.8,0-266.2-119.4-266.2-266.2c0-146.8,119.4-266.2,266.2-266.2S827.3,463,827.3,609.8
					C827.3,756.6,707.8,876,561.1,876z M561.1,350.5c-143,0-259.3,116.3-259.3,259.3c0,143,116.3,259.3,259.3,259.3
					c143,0,259.3-116.3,259.3-259.3C820.4,466.8,704,350.5,561.1,350.5z"/>
			</g>
		</g>
		<g>
			<g>
				<path fill="#FFFFFF" d="M500.5,440.9c-0.2-0.7-0.4-1.1-0.4-3.3v-4.2c0-2.5-0.8-3.4-2.8-3.4h-1.5v11h-4.2V414h6.4
					c4.4,0,6.3,2,6.3,6.2v2.1c0,2.8-0.9,4.6-2.8,5.5c2.1,0.9,2.8,2.9,2.8,5.7v4.2c0,1.3,0,2.3,0.5,3.3H500.5z M495.9,417.8v8.3h1.7
					c1.6,0,2.5-0.7,2.5-2.8v-2.7c0-1.9-0.7-2.8-2.2-2.8H495.9z"/>
				<path fill="#FFFFFF" d="M519.7,420.6v3.5c0,4.3-2.1,6.7-6.3,6.7h-2v10.1h-4.2V414h6.2C517.6,414,519.7,416.3,519.7,420.6z
					 M511.4,417.8v9.1h2c1.3,0,2.1-0.6,2.1-2.5v-4c0-1.9-0.7-2.5-2.1-2.5H511.4z"/>
				<path fill="#FFFFFF" d="M530.6,433.1l2.9-19.1h5.9v26.9h-4v-19.3l-2.9,19.3h-4l-3.2-19.1v19.1h-3.7V414h5.9L530.6,433.1z"/>
				<path fill="#FFFFFF" d="M564.4,421l-3.3,9.7l3.5,10.3h-3.3l-2.6-7.9l-2.6,7.9h-2.9l3.5-10.3l-3.3-9.7h3.3l2.4,7.4l2.4-7.4H564.4
					z"/>
				<path fill="#FFFFFF" d="M575.2,417.4c3.3,0,4-1.6,4.7-3.4h2.8v26.9h-4.2v-20.5h-3.3V417.4z"/>
				<path fill="#FFFFFF" d="M587.5,420.4c0-4.3,2.3-6.8,6.4-6.8c4.2,0,6.4,2.5,6.4,6.8v14c0,4.3-2.3,6.8-6.4,6.8
					c-4.2,0-6.4-2.5-6.4-6.8V420.4z M591.7,434.7c0,1.9,0.8,2.7,2.2,2.7c1.3,0,2.2-0.7,2.2-2.7v-14.5c0-1.9-0.8-2.7-2.2-2.7
					c-1.3,0-2.2,0.7-2.2,2.7V434.7z"/>
				<path fill="#FFFFFF" d="M602.7,420.4c0-4.3,2.3-6.8,6.4-6.8c4.2,0,6.4,2.5,6.4,6.8v14c0,4.3-2.3,6.8-6.4,6.8
					c-4.2,0-6.4-2.5-6.4-6.8V420.4z M607,434.7c0,1.9,0.8,2.7,2.2,2.7c1.3,0,2.2-0.7,2.2-2.7v-14.5c0-1.9-0.8-2.7-2.2-2.7
					c-1.3,0-2.2,0.7-2.2,2.7V434.7z"/>
				<path fill="#FFFFFF" d="M618,420.4c0-4.3,2.3-6.8,6.4-6.8c4.2,0,6.4,2.5,6.4,6.8v14c0,4.3-2.3,6.8-6.4,6.8
					c-4.2,0-6.4-2.5-6.4-6.8V420.4z M622.2,434.7c0,1.9,0.8,2.7,2.2,2.7c1.3,0,2.2-0.7,2.2-2.7v-14.5c0-1.9-0.8-2.7-2.2-2.7
					c-1.3,0-2.2,0.7-2.2,2.7V434.7z"/>
			</g>
		</g>
		<path fill="#FFFFFF" d="M561.1,108.3c-7.4,0-13.5,6-13.5,13.5c0,7.4,6,13.5,13.5,13.5c7.4,0,13.5-6,13.5-13.5
			C574.5,114.3,568.5,108.3,561.1,108.3z M206.4,255.2c-5.3,5.3-5.3,13.8,0,19c5.3,5.3,13.8,5.3,19,0c5.3-5.3,5.3-13.8,0-19
			C220.2,249.9,211.7,249.9,206.4,255.2z M73,596.3c-7.4,0-13.5,6-13.5,13.5s6,13.5,13.5,13.5c7.4,0,13.5-6,13.5-13.5
			S80.5,596.3,73,596.3z M206.4,945.4c-5.3,5.3-5.3,13.8,0,19c5.3,5.3,13.8,5.3,19,0c5.3-5.3,5.3-13.8,0-19
			C220.2,940.1,211.7,940.1,206.4,945.4z M896.6,945.4c-5.3,5.3-5.3,13.8,0,19c5.3,5.3,13.8,5.3,19,0c5.3-5.3,5.3-13.8,0-19
			C910.4,940.1,901.9,940.1,896.6,945.4z M1049.1,596.3c-7.4,0-13.5,6-13.5,13.5s6,13.5,13.5,13.5s13.5-6,13.5-13.5
			S1056.5,596.3,1049.1,596.3z M896.6,255.2c-5.3,5.3-5.3,13.8,0,19c5.3,5.3,13.8,5.3,19,0c5.3-5.3,5.3-13.8,0-19
			C910.4,249.9,901.9,249.9,896.6,255.2z"/>
		<path fill="#FFFFFF" d="M110.4,802.7c-2.3,0-4.4-1.4-5.3-3.5c-1.2-2.9,0.2-6.3,3.1-7.5c0.7-0.3,1.4-0.4,2.2-0.4
			c2.3,0,4.4,1.4,5.3,3.5c1.2,2.9-0.2,6.3-3.1,7.5C111.9,802.6,111.1,802.7,110.4,802.7C110.4,802.7,110.4,802.7,110.4,802.7z
			 M1012.1,801.8c-0.7,0-1.5-0.2-2.2-0.4c-2.9-1.2-4.3-4.5-3.1-7.4c0.9-2.1,3-3.5,5.3-3.5c0.7,0,1.5,0.1,2.2,0.4
			c1.4,0.6,2.5,1.7,3.1,3.1c0.6,1.4,0.6,3,0,4.4C1016.5,800.4,1014.4,801.8,1012.1,801.8z M110,429.2c-0.7,0-1.5-0.2-2.2-0.4
			c-2.9-1.2-4.3-4.5-3.1-7.4c0.9-2.1,3-3.5,5.3-3.5c0.7,0,1.5,0.1,2.2,0.4c1.4,0.6,2.5,1.7,3.1,3.1c0.6,1.4,0.6,3,0,4.4
			C114.4,427.8,112.3,429.2,110,429.2z M1011.7,428.3c-2.3,0-4.4-1.4-5.3-3.5c-0.6-1.4-0.6-3,0-4.4c0.6-1.4,1.7-2.5,3.1-3.1
			c0.7-0.3,1.4-0.4,2.2-0.4c2.3,0,4.4,1.4,5.3,3.5c0.6,1.4,0.6,3,0,4.4c-0.6,1.4-1.7,2.5-3.1,3.1
			C1013.2,428.1,1012.5,428.3,1011.7,428.3z M373.8,164.8c-2.3,0-4.4-1.4-5.3-3.5c-1.2-2.9,0.2-6.2,3.1-7.5c0.7-0.3,1.4-0.4,2.2-0.4
			c2.3,0,4.4,1.4,5.3,3.5c0.6,1.4,0.6,3,0,4.4c-0.6,1.4-1.7,2.5-3.1,3.1C375.3,164.7,374.6,164.8,373.8,164.8z M747.3,164.4
			c-0.7,0-1.5-0.1-2.2-0.4c-1.4-0.6-2.5-1.7-3.1-3.1c-0.6-1.4-0.6-3,0-4.4c0.9-2.1,3-3.5,5.3-3.5c0.7,0,1.5,0.1,2.2,0.4
			c1.4,0.6,2.5,1.7,3.1,3.1c0.6,1.4,0.6,3,0,4.4C751.7,163,749.7,164.4,747.3,164.4z"/>
	</g>
</g>
</svg>
