<?xml version="1.0" encoding="UTF-8"?><svg xmlns="http://www.w3.org/2000/svg" xmlns:xlink="http://www.w3.org/1999/xlink" viewBox="0 0 1119 1110"><defs><style>.cls-1{fill:url(#linear-gradient);}.cls-1,.cls-2,.cls-3,.cls-4,.cls-5,.cls-6,.cls-7,.cls-8,.cls-9{stroke-width:0px;}.cls-10{clip-path:url(#clippath-2);}.cls-11{isolation:isolate;}.cls-2{fill:url(#radial-gradient-3);}.cls-2,.cls-4,.cls-12,.cls-6{mix-blend-mode:screen;}.cls-3{fill:none;}.cls-4{fill:url(#radial-gradient);}.cls-13{clip-path:url(#clippath-1);}.cls-5{fill:#fff;}.cls-14{clip-path:url(#clippath);}.cls-6{fill:url(#radial-gradient-2);}.cls-7{fill:#24fff8;}.cls-8{fill:#ff3f58;}.cls-9{fill:#00dcff;}</style><radialGradient id="radial-gradient" cx="561.09" cy="556.62" fx="561.09" fy="556.62" r="549.61" gradientTransform="translate(557.93 -233.72) rotate(45)" gradientUnits="userSpaceOnUse"><stop offset=".34" stop-color="#000"/><stop offset=".39" stop-color="#000003"/><stop offset=".45" stop-color="#00030f"/><stop offset=".5" stop-color="#000723"/><stop offset=".55" stop-color="#000c3f"/><stop offset=".61" stop-color="#001362"/><stop offset=".66" stop-color="#001c8e"/><stop offset=".71" stop-color="#0026c2"/><stop offset=".77" stop-color="#0032fc"/><stop offset=".77" stop-color="#03f"/><stop offset=".84" stop-color="#0d0aff"/><stop offset="1" stop-color="#000"/></radialGradient><clipPath id="clippath"><path class="cls-3" d="m561.09,553.99l-358.8,316.59c-77.12-87.4-119.71-200.03-119.71-316.59,0-262.5,216-478.5,478.5-478.5s478.5,216,478.5,478.5c0,116.4-42.48,228.9-119.41,316.25l-359.09-316.25Z"/></clipPath><clipPath id="clippath-1"><path class="cls-3" d="m561.09,92.84c-255.89,0-463.32,207.44-463.32,463.32s207.44,463.32,463.32,463.32,463.32-207.44,463.32-463.32S816.98,92.84,561.09,92.84Zm0,883.78c-232.21,0-420.46-188.25-420.46-420.46s188.25-420.46,420.46-420.46,420.46,188.25,420.46,420.46-188.25,420.46-420.46,420.46Z"/></clipPath><clipPath id="clippath-2"><path class="cls-3" d="m561.09,92.84c-255.89,0-463.32,207.44-463.32,463.32s207.44,463.32,463.32,463.32,463.32-207.44,463.32-463.32S816.98,92.84,561.09,92.84Zm0,857.93c-217.94,0-394.61-176.67-394.61-394.61s176.67-394.61,394.61-394.61,394.61,176.67,394.61,394.61-176.67,394.61-394.61,394.61Z"/></clipPath><radialGradient id="radial-gradient-2" cx="561.09" cy="558.11" fx="561.09" fy="558.11" r="263.78" gradientTransform="translate(558.98 -233.28) rotate(45)" gradientUnits="userSpaceOnUse"><stop offset=".46" stop-color="#000"/><stop offset=".5" stop-color="#090000"/><stop offset=".56" stop-color="#230000"/><stop offset=".64" stop-color="#4d0001"/><stop offset=".74" stop-color="#870002"/><stop offset=".85" stop-color="#d10003"/><stop offset=".86" stop-color="#dd0004"/><stop offset="1" stop-color="#000"/></radialGradient><linearGradient id="linear-gradient" x1="561.09" y1="846.32" x2="561.09" y2="933.65" gradientUnits="userSpaceOnUse"><stop offset="0" stop-color="#2e39ff"/><stop offset=".68" stop-color="#0e1252"/><stop offset="1" stop-color="#000"/></linearGradient><radialGradient id="radial-gradient-3" cx="552.16" cy="3266.42" fx="552.16" fy="3266.42" r="138.05" gradientTransform="translate(25.55 531.11) scale(.97 .1)" gradientUnits="userSpaceOnUse"><stop offset="0" stop-color="#0613ff"/><stop offset=".25" stop-color="#040ebe"/><stop offset=".84" stop-color="#00021e"/><stop offset=".95" stop-color="#000"/></radialGradient></defs><g class="cls-11"><g id="Layer_1"><path class="cls-5" d="m206.83,665.62c-1.57,0-2.55.85-2.55,3.09v3.36h-4.66v-3.05c0-5.02,2.51-7.89,7.35-7.89s7.35,2.87,7.35,7.89c0,9.86-9.81,13.53-9.81,18.68,0,.22,0,.45.04.67h9.32v4.48h-14.25v-3.85c0-9.23,9.77-10.75,9.77-19.8,0-2.82-.98-3.59-2.55-3.59Z"/><path class="cls-5" d="m216.95,669.03c0-5.02,2.64-7.89,7.48-7.89s7.49,2.87,7.49,7.89v16.31c0,5.02-2.64,7.89-7.49,7.89s-7.48-2.87-7.48-7.89v-16.31Zm4.93,16.62c0,2.24.99,3.09,2.55,3.09s2.56-.85,2.56-3.09v-16.94c0-2.24-.99-3.09-2.56-3.09s-2.55.85-2.55,3.09v16.94Z"/><path class="cls-5" d="m174.93,559.54l8.96-21.19h5.38v21.19h2.33v4.48h-2.33v5.69h-4.84v-5.69h-9.5v-4.48Zm9.5,0v-11.78l-4.97,11.78h4.97Z"/><path class="cls-5" d="m193.43,545.87c0-5.02,2.64-7.89,7.48-7.89s7.49,2.87,7.49,7.89v16.31c0,5.02-2.64,7.89-7.49,7.89s-7.48-2.87-7.48-7.89v-16.31Zm4.93,16.62c0,2.24.99,3.09,2.55,3.09s2.56-.85,2.56-3.09v-16.94c0-2.24-.99-3.09-2.56-3.09s-2.55.85-2.55,3.09v16.94Z"/><path class="cls-5" d="m198.18,425.23c0-5.29,2.42-8.16,7.53-8.16,4.84,0,7.35,2.87,7.35,7.89v.81h-4.66v-1.12c0-2.24-.99-3.09-2.55-3.09-1.75,0-2.74.85-2.74,3.85v5.74c.85-1.79,2.38-2.78,4.57-2.78,3.63,0,5.46,2.55,5.46,7.17v5.74c0,5.02-2.64,7.89-7.48,7.89s-7.49-2.87-7.49-7.89v-16.04Zm4.93,10.71v5.65c0,2.24.99,3.05,2.56,3.05s2.55-.81,2.55-3.05v-5.65c0-2.24-.99-3.09-2.55-3.09s-2.56.85-2.56,3.09Z"/><path class="cls-5" d="m215.82,424.96c0-5.02,2.64-7.89,7.48-7.89s7.49,2.87,7.49,7.89v16.31c0,5.02-2.64,7.89-7.49,7.89s-7.48-2.87-7.48-7.89v-16.31Zm4.93,16.63c0,2.24.99,3.09,2.55,3.09s2.56-.85,2.56-3.09v-16.94c0-2.24-.99-3.09-2.56-3.09s-2.55.85-2.55,3.09v16.94Z"/><circle class="cls-4" cx="561.09" cy="556.62" r="549.61" transform="translate(-229.25 559.78) rotate(-45)"/><path class="cls-9" d="m561.09,1022.62c-256.95,0-466-209.05-466-466S304.14,90.62,561.09,90.62s466,209.05,466,466-209.05,466-466,466Zm0-922.7c-251.83,0-456.71,204.88-456.71,456.71s204.88,456.71,456.71,456.71,456.71-204.88,456.71-456.71S812.92,99.91,561.09,99.91Z"/><path class="cls-9" d="m561.09,1033.48c-262.94,0-476.86-213.92-476.86-476.86S298.15,79.76,561.09,79.76s476.86,213.92,476.86,476.86-213.92,476.86-476.86,476.86Zm0-949.2c-260.45,0-472.34,211.89-472.34,472.35s211.89,472.34,472.34,472.34,472.35-211.89,472.35-472.34S821.54,84.27,561.09,84.27Z"/><path class="cls-9" d="m561.09,1040.07c-266.57,0-483.44-216.87-483.44-483.45S294.52,73.18,561.09,73.18s483.45,216.87,483.45,483.44-216.87,483.45-483.45,483.45Zm0-964.57c-265.29,0-481.12,215.83-481.12,481.12s215.83,481.12,481.12,481.12,481.12-215.83,481.12-481.12S826.38,75.5,561.09,75.5Z"/><g class="cls-14"><g class="cls-13"><rect class="cls-7" x="559.13" y="111.16" width="3.92" height="890" transform="translate(-19.07 19.92) rotate(-2)"/><rect class="cls-7" x="559.13" y="111.16" width="3.92" height="890" transform="translate(-37.43 40.49) rotate(-4)"/><rect class="cls-7" x="559.13" y="111.16" width="3.93" height="890" transform="translate(-55.06 61.7) rotate(-6)"/><rect class="cls-7" x="559.13" y="111.16" width="3.93" height="890" transform="translate(-71.94 83.5) rotate(-8)"/><rect class="cls-7" x="559.13" y="111.16" width="3.93" height="890" transform="translate(-103.37 128.81) rotate(-12)"/><rect class="cls-7" x="559.13" y="111.16" width="3.93" height="890" transform="translate(-117.88 152.26) rotate(-14)"/><rect class="cls-7" x="559.13" y="111.16" width="3.92" height="890" transform="translate(-131.56 176.2) rotate(-16)"/><rect class="cls-7" x="559.13" y="111.16" width="3.92" height="890" transform="translate(-144.4 200.61) rotate(-18)"/><rect class="cls-7" x="559.13" y="111.16" width="3.93" height="890" transform="translate(-167.48 250.69) rotate(-22)"/><rect class="cls-7" x="559.13" y="111.16" width="3.93" height="890" transform="translate(-177.7 276.3) rotate(-24)"/><rect class="cls-7" x="559.13" y="111.16" width="3.93" height="890" transform="translate(-187.02 302.26) rotate(-26)"/><rect class="cls-7" x="559.13" y="111.16" width="3.93" height="890" transform="translate(-195.42 328.52) rotate(-28)"/><rect class="cls-7" x="559.13" y="111.16" width="3.93" height="890" transform="translate(-209.46 381.84) rotate(-32)"/><rect class="cls-7" x="559.13" y="111.16" width="3.92" height="890" transform="translate(-215.07 408.84) rotate(-34)"/><rect class="cls-7" x="559.13" y="111.16" width="3.93" height="890" transform="translate(-219.74 436.02) rotate(-36)"/><rect class="cls-7" x="559.13" y="111.16" width="3.93" height="890" transform="translate(-223.46 463.34) rotate(-38)"/><rect class="cls-7" x="559.13" y="111.16" width="3.93" height="890" transform="translate(-228.02 518.29) rotate(-42)"/><rect class="cls-7" x="559.13" y="111.16" width="3.93" height="890" transform="translate(-228.87 545.86) rotate(-44)"/><rect class="cls-7" x="559.13" y="111.16" width="3.93" height="890" transform="translate(-228.74 573.43) rotate(-46)"/><rect class="cls-7" x="559.13" y="111.16" width="3.93" height="890" transform="translate(-227.66 600.99) rotate(-48)"/><rect class="cls-7" x="559.13" y="111.16" width="3.93" height="890" transform="translate(-222.61 655.9) rotate(-52)"/><rect class="cls-7" x="559.13" y="111.16" width="3.93" height="890" transform="translate(-218.65 683.19) rotate(-54)"/><rect class="cls-7" x="559.13" y="111.16" width="3.93" height="890" transform="translate(-213.74 710.33) rotate(-56)"/><polygon class="cls-7" points="937.43 793.64 182.67 322.01 184.75 318.68 939.51 790.31 937.43 793.64"/><rect class="cls-7" x="559.13" y="111.16" width="3.93" height="890" transform="translate(-193.38 790.47) rotate(-62)"/><rect class="cls-7" x="559.13" y="111.16" width="3.93" height="890" transform="translate(-184.75 816.66) rotate(-64)"/><rect class="cls-7" x="559.13" y="111.16" width="3.93" height="890" transform="translate(-175.2 842.53) rotate(-66)"/><rect class="cls-7" x="559.13" y="111.16" width="3.93" height="890" transform="translate(-164.76 868.05) rotate(-68)"/><rect class="cls-7" x="559.13" y="111.16" width="3.93" height="890" transform="translate(-141.23 917.93) rotate(-72)"/><rect class="cls-7" x="559.13" y="111.16" width="3.92" height="890" transform="translate(-128.18 942.22) rotate(-74)"/><rect class="cls-7" x="559.13" y="111.16" width="3.93" height="890" transform="translate(-114.29 966.04) rotate(-76)"/><rect class="cls-7" x="559.13" y="111.16" width="3.93" height="890" transform="translate(-99.57 989.36) rotate(-78)"/><rect class="cls-7" x="559.13" y="111.16" width="3.93" height="890" transform="translate(-67.74 1034.39) rotate(-82)"/><rect class="cls-7" x="559.13" y="111.16" width="3.93" height="890" transform="translate(-50.67 1056.04) rotate(-84)"/><rect class="cls-7" x="559.13" y="111.16" width="3.93" height="890" transform="translate(-32.85 1077.09) rotate(-86)"/><rect class="cls-7" x="559.13" y="111.16" width="3.92" height="890" transform="translate(-14.31 1097.5) rotate(-88)"/><rect class="cls-7" x="116.09" y="554.2" width="890" height="3.92" transform="translate(-18.91 19.75) rotate(-1.98)"/><rect class="cls-7" x="116.09" y="554.2" width="890" height="3.93" transform="translate(-37.15 40.17) rotate(-3.97)"/><rect class="cls-7" x="116.09" y="554.2" width="890" height="3.93" transform="translate(-54.66 61.2) rotate(-5.95)"/><rect class="cls-7" x="116.09" y="554.19" width="890" height="3.93" transform="translate(-71.51 82.92) rotate(-7.95)"/><rect class="cls-7" x="116.09" y="554.2" width="890" height="3.93" transform="translate(-103.17 128.5) rotate(-11.97)"/><rect class="cls-7" x="116.09" y="554.2" width="890" height="3.93" transform="translate(-117.98 152.43) rotate(-14.01)"/><rect class="cls-7" x="116.09" y="554.2" width="890" height="3.92" transform="translate(-131.31 175.74) rotate(-15.96)"/><rect class="cls-7" x="116.09" y="554.2" width="890" height="3.93" transform="translate(-144.6 200.99) rotate(-18.03)"/><rect class="cls-7" x="116.09" y="554.2" width="890" height="3.93" transform="translate(-167.35 250.38) rotate(-21.98)"/><rect class="cls-7" x="116.09" y="554.2" width="890" height="3.93" transform="translate(-177.73 276.38) rotate(-24.01)"/><rect class="cls-7" x="116.09" y="554.2" width="890" height="3.93" transform="translate(-186.75 301.46) rotate(-25.94)"/><rect class="cls-7" x="116.09" y="554.2" width="890" height="3.93" transform="translate(-195.53 328.89) rotate(-28.03)"/><polygon class="cls-7" points="184.75 793.64 182.67 790.31 937.43 318.68 939.51 322.01 184.75 793.64"/><rect class="cls-7" x="116.09" y="554.2" width="890" height="3.93" transform="translate(-215.21 409.53) rotate(-34.05)"/><rect class="cls-7" x="116.09" y="554.2" width="890" height="3.93" transform="translate(-219.72 435.85) rotate(-35.99)"/><rect class="cls-7" x="116.09" y="554.19" width="890" height="3.93" transform="translate(-223.55 464.15) rotate(-38.06)"/><rect class="cls-7" x="116.09" y="554.2" width="890" height="3.93" transform="translate(-228.05 518.73) rotate(-42.03)"/><rect class="cls-7" x="116.09" y="554.2" width="890" height="3.93" transform="translate(-228.85 544.93) rotate(-43.93)"/><rect class="cls-7" x="116.09" y="554.2" width="890" height="3.93" transform="translate(-228.72 574.41) rotate(-46.07)"/><rect class="cls-7" x="116.09" y="554.2" width="890" height="3.93" transform="translate(-227.68 600.57) rotate(-47.97)"/><rect class="cls-7" x="116.09" y="554.2" width="890" height="3.93" transform="translate(-222.72 655.06) rotate(-51.94)"/><rect class="cls-7" x="116.09" y="554.2" width="890" height="3.93" transform="translate(-218.63 683.34) rotate(-54.01)"/><rect class="cls-7" x="116.09" y="554.2" width="890" height="3.92" transform="translate(-213.87 709.69) rotate(-55.95)"/><rect class="cls-7" x="116.09" y="554.19" width="890" height="3.93" transform="translate(-207.72 737.99) rotate(-58.05)"/><rect class="cls-7" x="116.09" y="554.2" width="890" height="3.93" transform="translate(-193.5 790.11) rotate(-61.97)"/><rect class="cls-7" x="116.09" y="554.2" width="890" height="3.93" transform="translate(-184.46 817.47) rotate(-64.06)"/><rect class="cls-7" x="116.09" y="554.2" width="890" height="3.93" transform="translate(-175.25 842.4) rotate(-65.99)"/><rect class="cls-7" x="116.09" y="554.2" width="890" height="3.93" transform="translate(-164.64 868.34) rotate(-68.02)"/><rect class="cls-7" x="116.09" y="554.2" width="890" height="3.92" transform="translate(-141.41 917.58) rotate(-71.97)"/><rect class="cls-7" x="116.09" y="554.2" width="890" height="3.92" transform="translate(-127.9 942.72) rotate(-74.04)"/><rect class="cls-7" x="116.09" y="554.19" width="890" height="3.93" transform="translate(-114.34 965.95) rotate(-75.99)"/><rect class="cls-7" x="116.09" y="554.2" width="890" height="3.93" transform="translate(-99.36 989.68) rotate(-78.03)"/><rect class="cls-7" x="116.09" y="554.2" width="890" height="3.93" transform="translate(-67.3 1034.97) rotate(-82.05)"/><rect class="cls-7" x="116.09" y="554.19" width="890" height="3.93" transform="translate(-50.26 1056.55) rotate(-84.05)"/><rect class="cls-7" x="116.09" y="554.2" width="890" height="3.92" transform="translate(-32.57 1077.41) rotate(-86.03)"/><rect class="cls-7" x="116.09" y="554.2" width="890" height="3.92" transform="translate(-14.2 1097.61) rotate(-88.01)"/></g><g class="cls-10"><rect class="cls-7" x="557.16" y="111.16" width="7.85" height="890"/><rect class="cls-5" x="557.17" y="111.16" width="7.85" height="890" transform="translate(-88.05 105.88) rotate(-10)"/><rect class="cls-7" x="557.17" y="111.16" width="7.85" height="890" transform="translate(-156.38 225.45) rotate(-20)"/><rect class="cls-5" x="557.17" y="111.16" width="7.85" height="890" transform="translate(-202.91 355.06) rotate(-30)"/><rect class="cls-7" x="557.16" y="111.16" width="7.85" height="890" transform="translate(-226.22 490.78) rotate(-40)"/><rect class="cls-5" x="557.17" y="111.16" width="7.85" height="890" transform="translate(-225.61 628.49) rotate(-50)"/><rect class="cls-7" x="557.17" y="111.16" width="7.85" height="890" transform="translate(-201.1 764) rotate(-60)"/><rect class="cls-5" x="557.16" y="111.16" width="7.85" height="890" transform="translate(-153.43 893.2) rotate(-70)"/><rect class="cls-7" x="557.17" y="111.16" width="7.85" height="890" transform="translate(-84.05 1012.15) rotate(-80)"/><rect class="cls-5" x="116.09" y="552.23" width="890" height="7.85"/><rect class="cls-7" x="116.09" y="552.23" width="890" height="7.85" transform="translate(-88.17 106.06) rotate(-10.02)"/><rect class="cls-5" x="116.09" y="552.23" width="890" height="7.85" transform="translate(-156.29 225.25) rotate(-19.98)"/><rect class="cls-7" x="116.09" y="552.23" width="890" height="7.85" transform="translate(-203.03 355.54) rotate(-30.04)"/><rect class="cls-5" x="116.09" y="552.23" width="890" height="7.85" transform="translate(-226.23 490.88) rotate(-40.01)"/><rect class="cls-7" x="116.09" y="552.23" width="890" height="7.85" transform="translate(-225.62 628.38) rotate(-49.99)"/><rect class="cls-5" x="116.09" y="552.23" width="890" height="7.85" transform="translate(-201.22 763.55) rotate(-59.97)"/><rect class="cls-7" x="116.09" y="552.23" width="890" height="7.85" transform="translate(-153.34 893.4) rotate(-70.02)"/><rect class="cls-5" x="116.09" y="552.23" width="890" height="7.85" transform="translate(-84.2 1011.94) rotate(-79.98)"/></g></g><circle class="cls-6" cx="561.09" cy="558.11" r="263.78" transform="translate(-230.3 560.22) rotate(-45)"/><path class="cls-8" d="m561.09,787.26c-126.35,0-229.14-102.79-229.14-229.14s102.79-229.15,229.14-229.15,229.15,102.8,229.15,229.15-102.8,229.14-229.15,229.14Zm0-440.33c-116.45,0-211.19,94.74-211.19,211.19s94.74,211.19,211.19,211.19,211.19-94.74,211.19-211.19-94.74-211.19-211.19-211.19Z"/><path class="cls-5" d="m561.09,781.16c-122.99,0-223.05-100.06-223.05-223.05s100.06-223.05,223.05-223.05,223.05,100.06,223.05,223.05-100.06,223.05-223.05,223.05Zm0-440.33c-119.81,0-217.28,97.47-217.28,217.28s97.47,217.28,217.28,217.28,217.29-97.47,217.29-217.28-97.47-217.28-217.29-217.28Z"/><path class="cls-5" d="m268.63,788.82c0-5.02,2.64-7.89,7.48-7.89s7.48,2.87,7.48,7.89v16.31c0,5.02-2.64,7.89-7.48,7.89s-7.48-2.87-7.48-7.89v-16.31Zm4.93,16.62c0,2.24.99,3.09,2.55,3.09s2.56-.85,2.56-3.09v-16.94c0-2.24-.99-3.09-2.56-3.09s-2.55.85-2.55,3.09v16.94Z"/><path class="cls-5" d="m271.63,337.21c-4.97,0-7.7-2.87-7.7-7.89v-2.46c0-3,.89-5.33,3.05-6.54-2.07-1.12-3.05-3.23-3.05-6.32v-.99c0-5.02,2.73-7.89,7.7-7.89s7.71,2.87,7.71,7.89v.99c0,3.09-1.03,5.2-3.05,6.32,2.15,1.21,3.05,3.54,3.05,6.54v2.46c0,5.02-2.73,7.89-7.71,7.89Zm-2.78-22.27c0,2.51,1.16,3.31,2.78,3.31s2.78-.8,2.78-3.31v-1.75c0-2.82-1.21-3.58-2.78-3.58s-2.78.76-2.78,3.58v1.75Zm2.78,17.79c1.57,0,2.74-.76,2.78-3.54v-2.91c0-2.46-1.03-3.54-2.78-3.54s-2.78,1.08-2.78,3.54v2.91c0,2.78,1.21,3.54,2.78,3.54Z"/><path class="cls-5" d="m281.88,313.01c0-5.02,2.64-7.89,7.48-7.89s7.48,2.87,7.48,7.89v16.31c0,5.02-2.64,7.89-7.48,7.89s-7.48-2.87-7.48-7.89v-16.31Zm4.93,16.63c0,2.24.99,3.09,2.55,3.09s2.56-.85,2.56-3.09v-16.94c0-2.24-.99-3.09-2.56-3.09s-2.55.85-2.55,3.09v16.94Z"/><path class="cls-5" d="m349.33,227.7c3.81,0,4.66-1.84,5.42-3.94h3.32v31.37h-4.93v-23.93h-3.81v-3.49Z"/><path class="cls-5" d="m363.61,231.28c0-5.02,2.64-7.89,7.48-7.89s7.49,2.87,7.49,7.89v16.31c0,5.02-2.64,7.89-7.49,7.89s-7.48-2.87-7.48-7.89v-16.31Zm4.93,16.63c0,2.24.99,3.09,2.55,3.09s2.56-.85,2.56-3.09v-16.94c0-2.24-.99-3.09-2.56-3.09s-2.55.85-2.55,3.09v16.94Z"/><path class="cls-5" d="m381.35,231.28c0-5.02,2.64-7.89,7.48-7.89s7.49,2.87,7.49,7.89v16.31c0,5.02-2.64,7.89-7.49,7.89s-7.48-2.87-7.48-7.89v-16.31Zm4.93,16.63c0,2.24.99,3.09,2.55,3.09s2.56-.85,2.56-3.09v-16.94c0-2.24-.99-3.09-2.56-3.09s-2.55.85-2.55,3.09v16.94Z"/><path class="cls-5" d="m478.07,180.68c3.81,0,4.66-1.84,5.42-3.94h3.32v31.37h-4.93v-23.93h-3.81v-3.49Z"/><path class="cls-5" d="m499.97,180.86c-1.57,0-2.56.85-2.56,3.09v3.36h-4.66v-3.05c0-5.02,2.51-7.89,7.35-7.89s7.35,2.87,7.35,7.89c0,9.86-9.81,13.53-9.81,18.69,0,.22,0,.45.04.67h9.32v4.48h-14.25v-3.85c0-9.23,9.77-10.75,9.77-19.8,0-2.82-.98-3.58-2.55-3.58Z"/><path class="cls-5" d="m510.09,184.27c0-5.02,2.64-7.89,7.48-7.89s7.48,2.87,7.48,7.89v16.31c0,5.02-2.64,7.88-7.48,7.88s-7.48-2.87-7.48-7.88v-16.31Zm4.93,16.63c0,2.24.99,3.09,2.55,3.09s2.56-.85,2.56-3.09v-16.94c0-2.24-.99-3.09-2.56-3.09s-2.55.85-2.55,3.09v16.94Z"/><path class="cls-5" d="m606.83,181.8c3.81,0,4.66-1.84,5.42-3.94h3.32v31.37h-4.93v-23.93h-3.81v-3.49Z"/><path class="cls-5" d="m620.35,199.05l8.96-21.19h5.38v21.19h2.33v4.48h-2.33v5.69h-4.84v-5.69h-9.5v-4.48Zm9.5,0v-11.78l-4.97,11.78h4.97Z"/><path class="cls-5" d="m638.84,185.38c0-5.02,2.64-7.89,7.48-7.89s7.49,2.87,7.49,7.89v16.31c0,5.02-2.64,7.88-7.49,7.88s-7.48-2.87-7.48-7.88v-16.31Zm4.93,16.63c0,2.24.99,3.09,2.55,3.09s2.56-.85,2.56-3.09v-16.94c0-2.24-.99-3.09-2.56-3.09s-2.55.85-2.55,3.09v16.94Z"/><path class="cls-5" d="m724.37,228.44c3.81,0,4.66-1.84,5.42-3.94h3.32v31.37h-4.93v-23.93h-3.81v-3.49Z"/><path class="cls-5" d="m738.75,232.3c0-5.29,2.42-8.16,7.53-8.16,4.84,0,7.35,2.87,7.35,7.89v.81h-4.66v-1.12c0-2.24-.99-3.09-2.55-3.09-1.75,0-2.74.85-2.74,3.85v5.74c.85-1.79,2.38-2.78,4.57-2.78,3.63,0,5.46,2.55,5.46,7.17v5.74c0,5.02-2.64,7.89-7.48,7.89s-7.49-2.87-7.49-7.89v-16.04Zm4.93,10.71v5.65c0,2.24.99,3.05,2.56,3.05s2.55-.81,2.55-3.05v-5.65c0-2.24-.99-3.09-2.55-3.09s-2.56.85-2.56,3.09Z"/><path class="cls-5" d="m756.39,232.03c0-5.02,2.64-7.89,7.48-7.89s7.49,2.87,7.49,7.89v16.31c0,5.02-2.64,7.89-7.49,7.89s-7.48-2.87-7.48-7.89v-16.31Zm4.93,16.63c0,2.24.99,3.09,2.55,3.09s2.56-.85,2.56-3.09v-16.94c0-2.24-.99-3.09-2.56-3.09s-2.55.85-2.55,3.09v16.94Z"/><path class="cls-5" d="m813.94,317.25c3.81,0,4.66-1.84,5.42-3.94h3.32v31.37h-4.93v-23.93h-3.81v-3.49Z"/><path class="cls-5" d="m835.7,345.04c-4.97,0-7.7-2.87-7.7-7.89v-2.46c0-3,.89-5.33,3.05-6.54-2.06-1.12-3.05-3.23-3.05-6.32v-.99c0-5.02,2.73-7.89,7.7-7.89s7.71,2.87,7.71,7.89v.99c0,3.09-1.03,5.2-3.05,6.32,2.15,1.21,3.05,3.54,3.05,6.54v2.46c0,5.02-2.73,7.89-7.71,7.89Zm-2.78-22.27c0,2.51,1.16,3.32,2.78,3.32s2.78-.8,2.78-3.32v-1.75c0-2.82-1.21-3.58-2.78-3.58s-2.78.76-2.78,3.58v1.75Zm2.78,17.79c1.57,0,2.74-.76,2.78-3.54v-2.91c0-2.46-1.03-3.54-2.78-3.54s-2.78,1.08-2.78,3.54v2.91c0,2.78,1.21,3.54,2.78,3.54Z"/><path class="cls-5" d="m845.96,320.84c0-5.02,2.64-7.89,7.48-7.89s7.49,2.87,7.49,7.89v16.31c0,5.02-2.64,7.89-7.49,7.89s-7.48-2.87-7.48-7.89v-16.31Zm4.93,16.63c0,2.24.99,3.09,2.55,3.09s2.56-.85,2.56-3.09v-16.94c0-2.24-.99-3.09-2.56-3.09s-2.55.85-2.55,3.09v16.94Z"/><path class="cls-5" d="m876.32,421.94c-1.57,0-2.55.85-2.55,3.09v3.36h-4.66v-3.05c0-5.02,2.51-7.89,7.35-7.89s7.35,2.87,7.35,7.89c0,9.86-9.81,13.53-9.81,18.69,0,.22,0,.45.04.67h9.32v4.48h-14.25v-3.85c0-9.23,9.77-10.75,9.77-19.81,0-2.82-.98-3.58-2.55-3.58Z"/><path class="cls-5" d="m886.44,425.34c0-5.02,2.64-7.89,7.48-7.89s7.48,2.87,7.48,7.89v16.31c0,5.02-2.64,7.89-7.48,7.89s-7.48-2.87-7.48-7.89v-16.31Zm4.93,16.63c0,2.24.99,3.09,2.55,3.09s2.56-.85,2.56-3.09v-16.94c0-2.24-.99-3.09-2.56-3.09s-2.55.85-2.55,3.09v16.94Z"/><path class="cls-5" d="m904.17,425.34c0-5.02,2.64-7.89,7.48-7.89s7.49,2.87,7.49,7.89v16.31c0,5.02-2.64,7.89-7.49,7.89s-7.48-2.87-7.48-7.89v-16.31Zm4.93,16.63c0,2.24.99,3.09,2.55,3.09s2.56-.85,2.56-3.09v-16.94c0-2.24-.99-3.09-2.56-3.09s-2.55.85-2.55,3.09v16.94Z"/><path class="cls-5" d="m900.2,544.33c-1.57,0-2.55.85-2.55,3.09v3.36h-4.66v-3.05c0-5.02,2.51-7.89,7.35-7.89s7.35,2.87,7.35,7.89c0,9.86-9.81,13.53-9.81,18.68,0,.22,0,.45.04.67h9.32v4.48h-14.25v-3.85c0-9.23,9.77-10.75,9.77-19.8,0-2.82-.98-3.59-2.55-3.59Z"/><path class="cls-5" d="m917.93,544.33c-1.57,0-2.55.85-2.55,3.09v3.36h-4.66v-3.05c0-5.02,2.51-7.89,7.35-7.89s7.35,2.87,7.35,7.89c0,9.86-9.81,13.53-9.81,18.68,0,.22,0,.45.04.67h9.32v4.48h-14.25v-3.85c0-9.23,9.77-10.75,9.77-19.8,0-2.82-.98-3.59-2.55-3.59Z"/><path class="cls-5" d="m928.05,547.73c0-5.02,2.64-7.89,7.48-7.89s7.49,2.87,7.49,7.89v16.31c0,5.02-2.64,7.89-7.49,7.89s-7.48-2.87-7.48-7.89v-16.31Zm4.93,16.62c0,2.24.99,3.09,2.55,3.09s2.56-.85,2.56-3.09v-16.94c0-2.24-.99-3.09-2.56-3.09s-2.55.85-2.55,3.09v16.94Z"/><path class="cls-5" d="m876.32,669.72c-1.57,0-2.55.85-2.55,3.09v3.36h-4.66v-3.04c0-5.02,2.51-7.89,7.35-7.89s7.35,2.87,7.35,7.89c0,9.86-9.81,13.53-9.81,18.68,0,.22,0,.45.04.67h9.32v4.48h-14.25v-3.85c0-9.23,9.77-10.75,9.77-19.81,0-2.82-.98-3.58-2.55-3.58Z"/><path class="cls-5" d="m885.67,686.79l8.96-21.19h5.38v21.19h2.33v4.48h-2.33v5.69h-4.84v-5.69h-9.5v-4.48Zm9.5,0v-11.78l-4.97,11.78h4.97Z"/><path class="cls-5" d="m904.17,673.13c0-5.02,2.64-7.89,7.48-7.89s7.49,2.87,7.49,7.89v16.31c0,5.02-2.64,7.89-7.49,7.89s-7.48-2.87-7.48-7.89v-16.31Zm4.93,16.62c0,2.24.99,3.09,2.55,3.09s2.56-.85,2.56-3.09v-16.94c0-2.24-.99-3.09-2.56-3.09s-2.55.85-2.55,3.09v16.94Z"/><path class="cls-5" d="m809.14,774.21c-1.57,0-2.56.85-2.56,3.09v3.36h-4.66v-3.05c0-5.02,2.51-7.89,7.35-7.89s7.35,2.87,7.35,7.89c0,9.86-9.81,13.53-9.81,18.68,0,.22,0,.45.04.67h9.32v4.48h-14.25v-3.85c0-9.23,9.77-10.75,9.77-19.8,0-2.82-.98-3.59-2.55-3.59Z"/><path class="cls-5" d="m819.35,777.89c0-5.29,2.42-8.16,7.53-8.16,4.84,0,7.35,2.87,7.35,7.89v.81h-4.66v-1.12c0-2.24-.99-3.09-2.55-3.09-1.75,0-2.74.85-2.74,3.85v5.74c.85-1.79,2.38-2.78,4.57-2.78,3.63,0,5.46,2.56,5.46,7.17v5.74c0,5.02-2.64,7.89-7.48,7.89s-7.49-2.87-7.49-7.89v-16.04Zm4.93,10.71v5.65c0,2.24.99,3.05,2.56,3.05s2.55-.81,2.55-3.05v-5.65c0-2.24-.99-3.09-2.55-3.09s-2.56.85-2.56,3.09Z"/><path class="cls-5" d="m836.99,777.62c0-5.02,2.64-7.89,7.48-7.89s7.49,2.87,7.49,7.89v16.31c0,5.02-2.64,7.89-7.49,7.89s-7.48-2.87-7.48-7.89v-16.31Zm4.93,16.62c0,2.24.99,3.09,2.55,3.09s2.56-.85,2.56-3.09v-16.94c0-2.24-.99-3.09-2.56-3.09s-2.55.85-2.55,3.09v16.94Z"/><g class="cls-12"><path class="cls-1" d="m673.37,933.65h-224.55c-8.02,0-14.55-6.53-14.55-14.55v-58.22c0-8.02,6.53-14.55,14.55-14.55h224.55c8.02,0,14.55,6.53,14.55,14.55v58.22c0,8.02-6.53,14.55-14.55,14.55Zm-224.55-82.85c-5.56,0-10.07,4.52-10.07,10.07v58.22c0,5.56,4.52,10.07,10.07,10.07h224.55c5.56,0,10.07-4.52,10.07-10.07v-58.22c0-5.56-4.52-10.07-10.07-10.07h-224.55Z"/></g><path class="cls-5" d="m471.54,877.48c0-8.61,4.53-13.53,12.84-13.53s12.84,4.92,12.84,13.53v27.99c0,8.61-4.54,13.53-12.84,13.53s-12.84-4.92-12.84-13.53v-27.99Zm8.46,28.53c0,3.84,1.69,5.3,4.39,5.3s4.38-1.46,4.38-5.3v-29.07c0-3.84-1.69-5.3-4.38-5.3s-4.39,1.46-4.39,5.3v29.07Z"/><path class="cls-5" d="m509.66,877.48c0-8.61,4.53-13.53,12.84-13.53s12.84,4.92,12.84,13.53v27.99c0,8.61-4.54,13.53-12.84,13.53s-12.84-4.92-12.84-13.53v-27.99Zm8.46,28.53c0,3.84,1.69,5.3,4.39,5.3s4.38-1.46,4.38-5.3v-29.07c0-3.84-1.69-5.3-4.38-5.3s-4.39,1.46-4.39,5.3v29.07Z"/><path class="cls-5" d="m547.78,877.48c0-8.61,4.54-13.53,12.84-13.53s12.84,4.92,12.84,13.53v27.99c0,8.61-4.53,13.53-12.84,13.53s-12.84-4.92-12.84-13.53v-27.99Zm8.46,28.53c0,3.84,1.69,5.3,4.38,5.3s4.39-1.46,4.39-5.3v-29.07c0-3.84-1.69-5.3-4.39-5.3s-4.38,1.46-4.38,5.3v29.07Z"/><path class="cls-5" d="m585.9,877.48c0-8.61,4.54-13.53,12.84-13.53s12.84,4.92,12.84,13.53v27.99c0,8.61-4.53,13.53-12.84,13.53s-12.84-4.92-12.84-13.53v-27.99Zm8.46,28.53c0,3.84,1.69,5.3,4.38,5.3s4.39-1.46,4.39-5.3v-29.07c0-3.84-1.69-5.3-4.39-5.3s-4.38,1.46-4.38,5.3v29.07Z"/><path class="cls-5" d="m624.02,877.48c0-8.61,4.54-13.53,12.84-13.53s12.84,4.92,12.84,13.53v27.99c0,8.61-4.53,13.53-12.84,13.53s-12.84-4.92-12.84-13.53v-27.99Zm8.46,28.53c0,3.84,1.69,5.3,4.38,5.3s4.39-1.46,4.39-5.3v-29.07c0-3.84-1.69-5.3-4.39-5.3s-4.38,1.46-4.38,5.3v29.07Z"/><ellipse class="cls-2" cx="561.09" cy="849.59" rx="133.87" ry="13.46"/><path class="cls-5" d="m534.96,738.7l-1.27,2.4v8.05h-4.12v-26.21h4.12v11.42l5.39-11.42h4.12l-5.73,11.69,5.73,14.53h-4.23l-4.01-10.45Z"/><path class="cls-5" d="m553.8,741.55l2.81-18.61h5.73v26.21h-3.89v-18.8l-2.85,18.8h-3.89l-3.07-18.54v18.54h-3.59v-26.21h5.73l3.03,18.61Z"/><path class="cls-5" d="m574.37,722.94h3.56l-10.34,26.21h-3.55l10.33-26.21Z"/><path class="cls-5" d="m583.74,749.15h-4.12v-26.21h4.12v11.24h4.68v-11.24h4.19v26.21h-4.19v-11.24h-4.68v11.24Z"/></g></g></svg>